<svg width="40" height="40" viewBox="0 0 40 40" fill="none" xmlns="http://www.w3.org/2000/svg">
<path d="M16.5998 23.4001V21.5501C16.5998 20.8334 16.0664 20.4834 15.4164 20.7667L7.06644 24.3667C5.74977 24.9334 4.68311 24.2334 4.68311 22.8167V20.6167C4.68311 19.4834 5.53311 18.1667 6.58311 17.7334L16.0831 13.6501C16.3498 13.5167 16.5831 13.1667 16.5831 12.8667V7.76672C16.5831 6.16672 17.7664 4.25006 19.1831 3.51672C19.6831 3.26672 20.2831 3.26672 20.7831 3.51672C22.2164 4.25006 23.3998 6.15006 23.3998 7.75006V12.8501C23.3998 13.1501 23.6331 13.5001 23.8998 13.6334L25.6331 14.3667L16.5998 23.4001Z" fill="#0069C4"/>
<path d="M32.7355 24.8258L32.7358 24.826C33.5059 25.1574 34.2861 25.1494 34.892 24.7543C35.4986 24.3586 35.8168 23.6491 35.8168 22.8167V20.6167C35.8168 19.9325 35.5636 19.2265 35.1793 18.6373C34.7952 18.0484 34.2501 17.5301 33.6144 17.2574C33.6142 17.2573 33.614 17.2572 33.6137 17.2571L25.8311 13.9074L25.5196 13.7734L25.2799 14.0131L16.2465 23.0465L16.1001 23.1929V23.4V26.4C16.1001 26.5096 16.0661 26.6784 15.9942 26.8581C15.9218 27.0391 15.8327 27.177 15.7632 27.2465L15.7625 27.2472L11.8965 31.1298C11.8964 31.13 11.8962 31.1301 11.8961 31.1303C11.614 31.4126 11.4323 31.8007 11.3441 32.1837C11.2556 32.5682 11.2491 33.0001 11.3744 33.3873L11.3744 33.3873L11.3754 33.3904L12.1237 35.6519C12.5183 36.9325 13.9721 37.5338 15.1603 36.9289L15.2113 36.903L15.2551 36.8662L19.2218 33.5328L19.2218 33.5328L19.2264 33.5289C19.6388 33.1737 20.3447 33.1737 20.7572 33.5289L20.7571 33.5289L20.7618 33.5328L24.7284 36.8662L24.7751 36.9054L24.8298 36.9322C26.0142 37.5137 27.459 36.933 27.8903 35.6606L27.8915 35.6571L28.6411 33.3915C28.6411 33.3914 28.6412 33.3913 28.6412 33.3912C28.7687 33.0085 28.7608 32.5746 28.6729 32.1906C28.5853 31.8076 28.4043 31.4139 28.1207 31.1302C28.1205 31.13 28.1204 31.1299 28.1203 31.1298L24.2544 27.2472L24.2487 27.2415L24.2428 27.2359C24.1703 27.1677 24.0797 27.033 24.0066 26.8543C23.934 26.6771 23.9001 26.5093 23.9001 26.4V21.55C23.9001 21.3092 23.9823 21.2298 24.0163 21.2075C24.0533 21.1832 24.1657 21.1396 24.3922 21.2287L32.7355 24.8258Z" fill="#292D32" stroke="#E1F0FD"/>
</svg>
