<svg width="40" height="40" viewBox="0 0 40 40" fill="none" xmlns="http://www.w3.org/2000/svg">
<path d="M27.4832 36.6666H12.5166C6.66656 36.6666 5.3999 33.3166 5.88324 29.2166L7.38323 16.7166C7.76656 13.4833 8.33323 10.8333 13.9999 10.8333H25.9999C31.6666 10.8333 32.2332 13.4833 32.6166 16.7166L33.8666 27.1333L34.1166 29.2166C34.1332 29.3499 34.1499 29.4832 34.1666 29.6166C34.5166 33.5332 33.1499 36.6666 27.4832 36.6666Z" fill="#00C3CF"/>
<path d="M26.6668 14.5833C25.9835 14.5833 25.4168 14.0166 25.4168 13.3333V7.49992C25.4168 5.69992 24.3002 4.58325 22.5002 4.58325H17.5002C15.7002 4.58325 14.5835 5.69992 14.5835 7.49992V13.3333C14.5835 14.0166 14.0168 14.5833 13.3335 14.5833C12.6502 14.5833 12.0835 14.0166 12.0835 13.3333V7.49992C12.0835 4.31659 14.3168 2.08325 17.5002 2.08325H22.5002C25.6835 2.08325 27.9168 4.31659 27.9168 7.49992V13.3333C27.9168 14.0166 27.3502 14.5833 26.6668 14.5833Z" fill="#292D32"/>
<path d="M34.1668 29.6166C34.1168 29.6333 34.0668 29.6333 34.0168 29.6333H13.3335C12.6502 29.6333 12.0835 29.0666 12.0835 28.3833C12.0835 27.6833 12.6502 27.1333 13.3335 27.1333H33.8668L34.1168 29.2166C34.1335 29.35 34.1502 29.4833 34.1668 29.6166Z" fill="#292D32"/>
</svg>
