<svg width="40" height="40" viewBox="0 0 40 40" fill="none" xmlns="http://www.w3.org/2000/svg">
<path d="M6.1167 4.14404V23.986C6.1167 25.6104 6.88337 27.152 8.20003 28.1301L16.8834 34.5948C18.7334 35.9707 21.2834 35.9707 23.1334 34.5948L31.8167 28.1301C33.1333 27.152 33.9 25.6104 33.9 23.986V4.14404H6.1167Z" fill="#FF0000"/>
<path d="M36.6666 5.38733H3.33325C2.64992 5.38733 2.08325 4.82374 2.08325 4.14411C2.08325 3.46448 2.64992 2.90088 3.33325 2.90088H36.6666C37.3499 2.90088 37.9166 3.46448 37.9166 4.14411C37.9166 4.82374 37.3499 5.38733 36.6666 5.38733Z" fill="#292D32"/>
<path d="M26.6666 14.5043H13.3333C12.6499 14.5043 12.0833 13.9407 12.0833 13.261C12.0833 12.5814 12.6499 12.0178 13.3333 12.0178H26.6666C27.3499 12.0178 27.9166 12.5814 27.9166 13.261C27.9166 13.9407 27.3499 14.5043 26.6666 14.5043Z" fill="#292D32"/>
<path d="M26.6666 22.7926H13.3333C12.6499 22.7926 12.0833 22.229 12.0833 21.5494C12.0833 20.8697 12.6499 20.3062 13.3333 20.3062H26.6666C27.3499 20.3062 27.9166 20.8697 27.9166 21.5494C27.9166 22.229 27.3499 22.7926 26.6666 22.7926Z" fill="#292D32"/>
</svg>
