<svg width="40" height="40" viewBox="0 0 40 40" fill="none" xmlns="http://www.w3.org/2000/svg">
<path d="M17.9168 7.69144L10.5334 4.06121C6.55011 2.12178 3.28345 4.09437 3.28345 8.43737V33.0367C3.28345 34.9264 4.86678 36.468 6.80011 36.468H19.1668C20.0834 36.468 20.8334 35.7221 20.8334 34.8104V12.2831C20.8334 10.5426 19.5168 8.47053 17.9168 7.69144ZM14.9501 22.7925H9.16678C8.48345 22.7925 7.91678 22.2289 7.91678 21.5493C7.91678 20.8696 8.48345 20.3061 9.16678 20.3061H14.9501C15.6334 20.3061 16.2001 20.8696 16.2001 21.5493C16.2001 22.2289 15.6501 22.7925 14.9501 22.7925ZM14.9501 16.162H9.16678C8.48345 16.162 7.91678 15.5984 7.91678 14.9187C7.91678 14.2391 8.48345 13.6755 9.16678 13.6755H14.9501C15.6334 13.6755 16.2001 14.2391 16.2001 14.9187C16.2001 15.5984 15.6501 16.162 14.9501 16.162Z" fill="#3F1E9C"/>
<path d="M36.6666 29.9038V32.324C36.6666 34.6115 34.7999 36.4681 32.4999 36.4681H24.9499C24.0499 36.4681 23.3333 35.7553 23.3333 34.8601V31.2796C25.1166 31.4951 26.9999 30.9813 28.3499 29.9038C29.4833 30.8155 30.9333 31.3625 32.5166 31.3625C34.0666 31.3625 35.5166 30.8155 36.6666 29.9038Z" fill="#292D32"/>
<path d="M36.6666 24.9474V24.964C36.5333 27.1355 34.7499 28.876 32.5166 28.876C30.1999 28.876 28.3499 27.0029 28.3499 24.7319C28.3499 27.2681 25.9999 29.307 23.3333 28.7932V19.8916C23.3333 18.8308 24.3166 18.0351 25.3666 18.2672L28.3499 18.9302L29.1499 19.1126L32.5499 19.8751C33.3666 20.0408 34.1166 20.3226 34.7666 20.737C34.7666 20.7536 34.7833 20.7536 34.7833 20.7536C34.9499 20.8696 35.1166 21.0023 35.2666 21.1514C36.0333 21.914 36.5333 23.0246 36.6499 24.6491C36.6499 24.7485 36.6666 24.848 36.6666 24.9474Z" fill="#292D32"/>
</svg>
