<svg width="40" height="40" viewBox="0 0 40 40" fill="none" xmlns="http://www.w3.org/2000/svg">
<path d="M25.3666 10.8574H9.63325C9.16659 10.8574 8.73325 10.874 8.33325 10.8906C4.38325 11.1226 3.33325 12.5648 3.33325 17.0404V18.0018C3.33325 18.9135 4.08325 19.6595 4.99992 19.6595H29.9999C30.9166 19.6595 31.6666 18.9135 31.6666 18.0018V17.0404C31.6666 12.1006 30.3999 10.8574 25.3666 10.8574Z" fill="#49B2E9"/>
<path d="M4.99992 22.146C4.08325 22.146 3.33325 22.8919 3.33325 23.8036V28.6274C3.33325 33.5671 4.59992 34.8103 9.63325 34.8103H25.3666C30.3166 34.8103 31.6166 33.6168 31.6666 28.8926V23.8036C31.6666 22.8919 30.9166 22.146 29.9999 22.146H4.99992ZM11.5999 30.7657H8.74992C8.06659 30.7657 7.49992 30.2021 7.49992 29.5225C7.49992 28.8428 8.06659 28.2793 8.74992 28.2793H11.6166C12.2999 28.2793 12.8666 28.8428 12.8666 29.5225C12.8666 30.2021 12.2999 30.7657 11.5999 30.7657ZM20.9166 30.7657H15.1833C14.4999 30.7657 13.9333 30.2021 13.9333 29.5225C13.9333 28.8428 14.4999 28.2793 15.1833 28.2793H20.9166C21.5999 28.2793 22.1666 28.8428 22.1666 29.5225C22.1666 30.2021 21.6166 30.7657 20.9166 30.7657Z" fill="#49B2E9"/>
<path d="M36.6667 22.0963V13.4103C36.6667 8.22192 33.6833 5.96753 29.1833 5.96753H14.3C13.0334 5.96753 11.9 6.14987 10.9 6.53113C10.1167 6.81292 9.41668 7.22733 8.85002 7.77435C8.55002 8.05615 8.78335 8.52029 9.21668 8.52029H27.3333C31.0833 8.52029 34.1167 11.5372 34.1167 15.2669V27.1521C34.1167 27.5665 34.5667 27.7986 34.8667 27.5002C36.0167 26.2902 36.6667 24.5165 36.6667 22.0963Z" fill="#292D32"/>
</svg>
