<svg width="40" height="40" viewBox="0 0 40 40" fill="none" xmlns="http://www.w3.org/2000/svg">
<path d="M25.3668 10.8574H9.6335C9.16683 10.8574 8.7335 10.874 8.3335 10.8906C4.3835 11.1226 3.3335 12.5648 3.3335 17.0404V18.0018C3.3335 18.9135 4.0835 19.6595 5.00016 19.6595H30.0002C30.9168 19.6595 31.6668 18.9135 31.6668 18.0018V17.0404C31.6668 12.1006 30.4002 10.8574 25.3668 10.8574Z" fill="#ED7905"/>
<path d="M5.00016 22.1461C4.0835 22.1461 3.3335 22.8921 3.3335 23.8038V28.6275C3.3335 33.5672 4.60016 34.8105 9.6335 34.8105H25.3668C30.3168 34.8105 31.6168 33.617 31.6668 28.8927V23.8038C31.6668 22.8921 30.9168 22.1461 30.0002 22.1461H5.00016ZM11.6002 30.7658H8.75016C8.06683 30.7658 7.50016 30.2022 7.50016 29.5226C7.50016 28.843 8.06683 28.2794 8.75016 28.2794H11.6168C12.3002 28.2794 12.8668 28.843 12.8668 29.5226C12.8668 30.2022 12.3002 30.7658 11.6002 30.7658ZM20.9168 30.7658H15.1835C14.5002 30.7658 13.9335 30.2022 13.9335 29.5226C13.9335 28.843 14.5002 28.2794 15.1835 28.2794H20.9168C21.6002 28.2794 22.1668 28.843 22.1668 29.5226C22.1668 30.2022 21.6168 30.7658 20.9168 30.7658Z" fill="#ED7905"/>
<path d="M36.6667 22.0963V13.4103C36.6667 8.22192 33.6833 5.96753 29.1833 5.96753H14.3C13.0334 5.96753 11.9 6.14987 10.9 6.53113C10.1167 6.81292 9.41668 7.22733 8.85002 7.77435C8.55002 8.05615 8.78335 8.52029 9.21668 8.52029H27.3333C31.0833 8.52029 34.1167 11.5372 34.1167 15.2669V27.1521C34.1167 27.5665 34.5667 27.7986 34.8667 27.5002C36.0167 26.2902 36.6667 24.5165 36.6667 22.0963Z" fill="#292D32"/>
</svg>
