<svg width="131" height="97" viewBox="0 0 131 97" fill="none" xmlns="http://www.w3.org/2000/svg">
<path d="M64.9999 96.9675C100.551 96.9675 129.371 95.3628 129.371 93.3832C129.371 91.4036 100.551 89.7988 64.9999 89.7988C29.4485 89.7988 0.628418 91.4036 0.628418 93.3832C0.628418 95.3628 29.4485 96.9675 64.9999 96.9675Z" fill="#F5F5F5"/>
<path d="M90.7436 19.8875C90.6905 20.7646 90.5842 21.5689 90.4647 22.4207C90.3452 23.2724 90.1792 24.0672 89.9899 24.8841C89.8007 25.701 89.5948 26.5211 89.3259 27.3286C89.0668 28.1434 88.7597 28.9436 88.4063 29.7255L88.1274 30.3176C88.0876 30.4063 88.0112 30.5361 87.9515 30.6343C87.8917 30.7324 87.822 30.8496 87.7556 30.9509C87.497 31.3372 87.2085 31.7045 86.8924 32.0497C86.3055 32.6937 85.6733 33.2989 85 33.8608C83.6968 34.9551 82.3108 35.9563 80.8533 36.8562L80.01 35.8177C80.6043 35.2699 81.2085 34.7031 81.7928 34.1395C82.3772 33.5759 82.9549 32.9996 83.5027 32.417C84.0441 31.8511 84.5549 31.2593 85.0332 30.6438C85.2502 30.3598 85.4476 30.0625 85.6241 29.754C85.6573 29.6844 85.7005 29.6115 85.7304 29.545C85.7664 29.4738 85.7985 29.4009 85.8267 29.3266L86.0391 28.7978C86.5778 27.3438 86.9974 25.8522 87.2941 24.3363C87.4535 23.5732 87.5697 22.7975 87.6892 22.0249C87.8087 21.2523 87.8983 20.4417 87.9714 19.7197L90.7436 19.8875Z" fill="#FFB573"/>
<path d="M88.8508 16.7313C87.732 17.0005 86.9485 21.3986 86.9485 21.3986L90.0361 23.3998C90.0361 23.3998 92.9942 18.9668 92.1343 17.7921C91.228 16.5667 90.4876 16.3324 88.8508 16.7313Z" fill="#009EC5"/>
<path opacity="0.2" d="M88.9534 17.7119L88.0935 22.1417L89.8265 23.2658L88.9534 17.7119Z" fill="black"/>
<path d="M80.5211 35.4443L77.4402 35.6565L79.2795 37.6228C79.2795 37.6228 80.9826 37.2523 81.2715 36.2138L80.5211 35.4443Z" fill="#FFB573"/>
<path d="M75.7402 36.698L77.0018 38.5503L79.2794 37.6226L77.4401 35.6562L75.7402 36.698Z" fill="#FFB573"/>
<path d="M94.9135 90.7359H92.1944L92.0151 84.7324H94.7309L94.9135 90.7359Z" fill="#FFB573"/>
<path d="M113.711 83.0951L111.194 84.0735L108.007 78.8331L110.523 77.8516L113.711 83.0951Z" fill="#FFB573"/>
<path d="M110.72 83.716L113.346 82.2278C113.391 82.2014 113.445 82.1916 113.497 82.2004C113.549 82.2092 113.596 82.2358 113.628 82.2753L115.162 84.0864C115.199 84.1335 115.224 84.1873 115.238 84.2444C115.251 84.3015 115.251 84.3606 115.239 84.4178C115.227 84.4751 115.202 84.5294 115.167 84.577C115.131 84.6246 115.086 84.6646 115.033 84.6944C114.11 85.1978 113.635 85.3973 112.48 86.0496C111.769 86.4517 110.099 87.8323 109.12 88.3896C108.141 88.9469 107.51 88.0476 107.868 87.7341C109.025 86.7364 109.9 85.4779 110.415 84.0738C110.47 83.9242 110.578 83.7977 110.72 83.716Z" fill="#263238"/>
<path d="M92.1012 90.4347H95.1556C95.2084 90.4328 95.26 90.45 95.3 90.4829C95.34 90.5158 95.3655 90.5619 95.3714 90.612L95.7034 92.9172C95.7099 92.9752 95.7035 93.034 95.6846 93.0895C95.6657 93.1451 95.6347 93.1962 95.5937 93.2396C95.5526 93.2829 95.5024 93.3175 95.4464 93.3411C95.3903 93.3646 95.3297 93.3766 95.2685 93.3763C94.2027 93.3605 93.6914 93.3003 92.3468 93.3003C91.5202 93.3003 89.8137 93.3826 88.6716 93.3826C87.5295 93.3826 87.4698 92.3061 87.9445 92.2079C90.076 91.7709 90.9126 91.1693 91.6297 90.593C91.7622 90.4885 91.9293 90.4324 92.1012 90.4347Z" fill="#263238"/>
<g opacity="0.2">
<path d="M92.0151 84.7324L92.1081 87.8292H94.8272L94.7342 84.7324H92.0151Z" fill="black"/>
<path d="M110.523 77.8516L108.007 78.8331L109.65 81.5341L112.167 80.5557L110.523 77.8516Z" fill="black"/>
</g>
<path d="M88.8509 16.731C88.8509 16.731 87.5562 17.1648 90.1524 32.3761H101.188C101.002 28.092 100.996 25.4481 103.144 16.655C101.598 16.3496 100.031 16.1528 98.4557 16.0661C96.7868 15.9519 95.1114 15.9519 93.4425 16.0661C91.2945 16.2529 88.8509 16.731 88.8509 16.731Z" fill="#009EC5"/>
<path d="M98.4592 16.0661C96.7903 15.9519 95.1149 15.9519 93.446 16.0661C92.8451 16.1167 92.2209 16.1927 91.6333 16.2719C91.3776 17.1965 91.4274 18.4883 92.4168 20.1792C92.575 20.4487 92.8311 20.6538 93.1368 20.7559C93.4426 20.858 93.7768 20.8499 94.0768 20.7333C94.8802 20.4167 98.9472 18.786 100.255 16.7658L100.587 16.2434C99.93 16.1674 99.1962 16.1009 98.4592 16.0661Z" fill="white"/>
<path d="M103.147 7.09217C103.147 10.8918 99.8664 13.3996 96.3904 14.986C92.7948 16.6262 89.176 11.9051 89.176 8.10541C89.1756 7.20158 89.3619 6.30651 89.7242 5.47136C90.0866 4.63621 90.6179 3.87733 91.2879 3.23807C91.9578 2.59882 92.7533 2.09171 93.6288 1.74573C94.5043 1.39976 95.4427 1.22168 96.3904 1.22168C100.374 1.22168 103.147 3.2925 103.147 7.09217Z" fill="#263238"/>
<path d="M104.063 2.70058C104.063 4.14129 103.014 5.69282 101.5 5.69282C100.775 5.69282 100.079 5.41794 99.5659 4.92863C99.0529 4.43933 98.7646 3.77569 98.7646 3.08371C98.7646 2.39174 99.0529 1.7281 99.5659 1.2388C100.079 0.749496 100.775 0.474609 101.5 0.474609C103.014 0.474609 104.063 1.25988 104.063 2.70058Z" fill="#263238"/>
<path d="M97.9642 10.6826C97.6322 12.2183 97.3301 15.0396 98.4589 16.0655C98.4589 16.0655 98.0173 17.6265 95.0227 17.6265C91.7259 17.6265 93.4457 16.0655 93.4457 16.0655C95.2451 15.6539 95.1986 14.381 94.8865 13.1872L97.9642 10.6826Z" fill="#FFB573"/>
<path d="M98.4589 16.0661C96.79 15.9519 95.1146 15.9519 93.4457 16.0661L93.1137 16.0977C92.7744 16.759 92.7219 17.5212 92.9676 18.2192C93.0186 18.3985 93.1103 18.5649 93.2363 18.7066C93.3622 18.8484 93.5193 18.9619 93.6964 19.0393C93.8735 19.1166 94.0663 19.1559 94.2611 19.1542C94.4558 19.1526 94.6479 19.1101 94.8235 19.0298C96.2113 18.3965 98.3626 17.2661 99.1129 16.1072C98.9005 16.0914 98.678 16.0756 98.4589 16.0661Z" fill="#FFB573"/>
<path opacity="0.2" d="M96.7097 11.7061L94.8804 13.1974C94.9578 13.4755 95.01 13.7594 95.0364 14.046C95.7237 13.951 96.6665 13.2323 96.7396 12.5452C96.7827 12.266 96.7725 11.9818 96.7097 11.7061Z" fill="black"/>
<path d="M98.2265 6.69321C98.7278 9.22632 98.9967 10.2807 98.0173 11.8766C96.5432 14.2767 93.1767 14.3115 91.8952 11.9747C90.7399 9.87543 90.1157 6.09159 92.4098 4.48623C92.9133 4.12941 93.5042 3.90131 94.1262 3.82364C94.7482 3.74597 95.3807 3.82129 95.9636 4.04244C96.5464 4.2636 97.0603 4.62325 97.4564 5.0872C97.8525 5.55116 98.1175 6.10401 98.2265 6.69321Z" fill="#FFB573"/>
<path d="M90.1526 32.3765C90.1526 32.3765 88.0079 52.3469 88.1872 60.2407C88.3698 68.4733 91.5304 87.2152 91.5304 87.2152H95.2123C95.2123 87.2152 94.6313 68.9419 94.9566 60.8676C95.3086 52.0619 98.2434 32.3701 98.2434 32.3701L90.1526 32.3765Z" fill="#263238"/>
<path d="M95.5241 87.3542H91.2114L90.896 86.0433L95.7233 85.8818L95.5241 87.3542Z" fill="#009EC5"/>
<path opacity="0.2" d="M94.9132 37.3445C92.2008 42.5469 94.3687 52.0366 95.3282 55.5671C95.8196 50.2666 96.6562 43.7818 97.2937 39.0227C96.872 36.3313 96.1649 34.9476 94.9132 37.3445Z" fill="black"/>
<path d="M93.0674 32.376C93.0674 32.376 95.5673 53.138 97.4564 59.8033C99.6974 67.7192 108.808 81.2176 108.808 81.2176L112.237 79.8813C112.237 79.8813 106.357 64.5085 104.641 60.3384C100.989 51.4408 104.116 38.1736 101.191 32.376H93.0674Z" fill="#263238"/>
<path d="M112.705 79.8974L108.449 81.5566L107.449 80.4546L112.366 78.292L112.705 79.8974Z" fill="#009EC5"/>
<path d="M94.2394 8.35882C94.2925 8.56147 94.2228 8.75145 94.0867 8.78628C93.9505 8.82111 93.7912 8.68179 93.7347 8.46965C93.6783 8.2575 93.7513 8.07701 93.8908 8.04218C94.0302 8.00735 94.1863 8.15617 94.2394 8.35882Z" fill="#263238"/>
<path d="M91.8353 8.93792C91.8917 9.14057 91.8353 9.33372 91.6826 9.36538C91.5299 9.39704 91.3871 9.26089 91.334 9.04874C91.2809 8.83659 91.334 8.65611 91.4867 8.62128C91.6394 8.58645 91.7822 8.73527 91.8353 8.93792Z" fill="#263238"/>
<path d="M91.5598 8.62793H91.012C91.012 8.62793 91.3672 8.92874 91.5598 8.62793Z" fill="#263238"/>
<path d="M92.6757 9.125C92.609 9.63268 92.4694 10.1292 92.2607 10.6005C92.3886 10.6486 92.5259 10.6693 92.663 10.6611C92.8002 10.6529 92.9337 10.616 93.0542 10.553L92.6757 9.125Z" fill="#ED893E"/>
<path d="M94.4253 11.0697C94.3246 11.1086 94.2215 11.1414 94.1165 11.1679C94.0998 11.171 94.0825 11.1682 94.0679 11.1601C94.0532 11.1519 94.0422 11.1389 94.0368 11.1235C94.0327 11.1076 94.0353 11.0908 94.044 11.0766C94.0526 11.0624 94.0667 11.052 94.0833 11.0476C94.3482 10.9894 94.5952 10.8733 94.8049 10.7085C95.0147 10.5436 95.1813 10.3345 95.2918 10.0976C95.2946 10.0901 95.299 10.0833 95.3046 10.0774C95.3102 10.0715 95.317 10.0667 95.3245 10.0634C95.3321 10.06 95.3403 10.058 95.3486 10.0577C95.3569 10.0573 95.3653 10.0585 95.3731 10.0612C95.381 10.0639 95.3882 10.0681 95.3943 10.0734C95.4005 10.0788 95.4055 10.0853 95.409 10.0925C95.4126 10.0997 95.4146 10.1075 95.415 10.1154C95.4154 10.1234 95.4141 10.1313 95.4113 10.1388C95.3197 10.3485 95.1854 10.5387 95.0161 10.6985C94.8469 10.8583 94.646 10.9845 94.4253 11.0697Z" fill="#263238"/>
<path d="M91.5034 4.80638C91.5034 4.80638 95.0558 8.28941 98.5983 8.28941C101.513 8.28941 101.417 3.62849 97.5624 3.43534C93.7079 3.24219 89.8069 2.24794 91.5034 4.80638Z" fill="#263238"/>
<path d="M99.5446 8.82141C99.4772 9.31462 99.2073 9.76216 98.7943 10.0658C98.2431 10.4648 97.7153 10.0658 97.6555 9.43253C97.6024 8.87208 97.8248 7.98865 98.4789 7.84933C98.6212 7.81908 98.7692 7.8228 98.9097 7.86017C99.0502 7.89754 99.1789 7.9674 99.2843 8.06355C99.3897 8.1597 99.4686 8.27917 99.514 8.41137C99.5594 8.54357 99.5699 8.68442 99.5446 8.82141Z" fill="#FFB573"/>
<path d="M94.7138 7.12132C94.6947 7.13991 94.6699 7.15211 94.6429 7.15611C94.616 7.16011 94.5884 7.15568 94.5644 7.14349C94.0365 6.88384 93.3526 7.21631 93.3459 7.21948C93.3311 7.22696 93.3149 7.23159 93.2982 7.2331C93.2815 7.2346 93.2646 7.23295 93.2486 7.22825C93.2326 7.22354 93.2177 7.21587 93.2048 7.20568C93.1918 7.19548 93.1811 7.18296 93.1733 7.16882C93.1654 7.15468 93.1606 7.13921 93.159 7.12328C93.1574 7.10735 93.1592 7.09129 93.1641 7.076C93.169 7.06071 93.1771 7.04649 93.1878 7.03417C93.1985 7.02184 93.2116 7.01165 93.2264 7.00416C93.2596 6.98517 94.0365 6.60836 94.6839 6.925C94.6989 6.93234 94.7122 6.94246 94.723 6.95476C94.7338 6.96707 94.7419 6.98131 94.7468 6.99665C94.7518 7.01199 94.7535 7.02813 94.7518 7.0441C94.7501 7.06007 94.7451 7.07556 94.737 7.08966C94.7312 7.1014 94.7234 7.1121 94.7138 7.12132Z" fill="#263238"/>
<path d="M90.5907 7.64677C90.5701 7.65503 90.5476 7.65792 90.5254 7.65514C90.5032 7.65235 90.4823 7.644 90.4646 7.63094C90.4371 7.61189 90.4185 7.58328 90.4129 7.55129C90.4073 7.51929 90.4151 7.48649 90.4347 7.45996C90.5522 7.29992 90.7081 7.169 90.8895 7.07811C91.0708 6.98723 91.2723 6.93902 91.4772 6.9375C91.5109 6.93994 91.5424 6.95489 91.5647 6.97916C91.587 7.00343 91.5985 7.03508 91.5967 7.06732C91.5963 7.0834 91.5925 7.09924 91.5855 7.11389C91.5786 7.12855 91.5686 7.14173 91.5562 7.15265C91.5439 7.16358 91.5293 7.17202 91.5134 7.17749C91.4976 7.18295 91.4807 7.18533 91.4639 7.18448C91.3021 7.18799 91.1434 7.22798 91.0009 7.30117C90.8584 7.37437 90.736 7.47869 90.6439 7.60561C90.6302 7.62352 90.6119 7.63771 90.5907 7.64677Z" fill="#263238"/>
<path d="M109.678 84.6976H109.644C109.584 84.6839 109.527 84.6559 109.481 84.616C109.435 84.5762 109.399 84.5258 109.379 84.4696C109.362 84.4359 109.354 84.3983 109.358 84.3609C109.361 84.3235 109.375 84.2878 109.399 84.2575C109.595 83.9852 110.577 84.02 110.69 84.0263C110.703 84.0263 110.715 84.03 110.725 84.0368C110.735 84.0436 110.743 84.0532 110.747 84.0643C110.752 84.0756 110.753 84.0882 110.75 84.1002C110.747 84.1122 110.74 84.1229 110.73 84.1308C110.484 84.362 110.013 84.7356 109.678 84.6976ZM110.528 84.1403C110.136 84.1403 109.608 84.1815 109.502 84.324C109.493 84.3384 109.488 84.3548 109.488 84.3715C109.488 84.3881 109.493 84.4045 109.502 84.419C109.514 84.4566 109.537 84.4906 109.567 84.5177C109.597 84.5449 109.634 84.5643 109.674 84.5741C109.857 84.6121 110.169 84.4411 110.528 84.1403Z" fill="#009EC5"/>
<path d="M110.587 84.14C110.255 84.102 109.654 83.8836 109.561 83.6302C109.544 83.5842 109.544 83.5341 109.561 83.4881C109.578 83.4421 109.61 83.4029 109.654 83.3769C109.693 83.3481 109.738 83.3276 109.786 83.3167C109.834 83.3057 109.884 83.3047 109.933 83.3136C110.321 83.3864 110.723 84.026 110.739 84.0514C110.745 84.061 110.748 84.0719 110.748 84.083C110.748 84.0941 110.745 84.1051 110.739 84.1147C110.733 84.1236 110.725 84.1311 110.715 84.1366C110.705 84.1421 110.694 84.1454 110.683 84.1464L110.587 84.14ZM109.889 83.4339C109.862 83.4304 109.834 83.4322 109.807 83.4393C109.78 83.4463 109.755 83.4585 109.733 83.4751C109.667 83.5226 109.67 83.5606 109.684 83.5891C109.747 83.7601 110.235 83.9722 110.563 84.0134C110.417 83.8076 110.142 83.4783 109.899 83.4339H109.889Z" fill="#009EC5"/>
<path d="M91.0819 90.8882C90.8482 90.9085 90.6142 90.8527 90.4179 90.7299C90.375 90.6922 90.342 90.6452 90.3218 90.5929C90.3016 90.5406 90.2947 90.4844 90.3017 90.4291C90.3039 90.3955 90.3152 90.363 90.3344 90.3347C90.3536 90.3064 90.3801 90.2833 90.4113 90.2676C90.7433 90.0903 91.8289 90.6191 91.9518 90.6824C91.9636 90.6883 91.9732 90.6976 91.9792 90.7089C91.9852 90.7203 91.9872 90.7332 91.985 90.7458C91.9832 90.7581 91.9774 90.7696 91.9685 90.7786C91.9596 90.7877 91.948 90.7939 91.9352 90.7964C91.6544 90.8522 91.3687 90.883 91.0819 90.8882ZM90.5972 90.3531C90.5561 90.3508 90.515 90.3584 90.4777 90.3753C90.4649 90.3816 90.4541 90.3911 90.4465 90.4028C90.4389 90.4145 90.4347 90.428 90.4345 90.4418C90.4295 90.4777 90.4335 90.5142 90.4462 90.5484C90.4589 90.5825 90.4799 90.6133 90.5076 90.6381C90.6736 90.7806 91.1218 90.8027 91.7227 90.7078C91.3717 90.5287 90.991 90.4088 90.5972 90.3531Z" fill="#009EC5"/>
<path d="M91.9252 90.7956H91.892C91.56 90.6531 90.9259 90.0959 90.9757 89.8014C90.9757 89.7317 91.0388 89.6462 91.218 89.6272C91.2823 89.6211 91.3472 89.6275 91.4089 89.646C91.4705 89.6645 91.5276 89.6948 91.5766 89.7349C91.9086 90.0072 91.9783 90.7038 91.9816 90.7323C91.9835 90.7432 91.982 90.7545 91.9773 90.7646C91.9725 90.7747 91.9648 90.7833 91.9551 90.7893C91.9458 90.7936 91.9355 90.7958 91.9252 90.7956ZM91.2612 89.7444H91.228C91.1118 89.7444 91.1018 89.8014 91.1018 89.8141C91.0686 89.9914 91.5069 90.4315 91.8355 90.6215C91.8127 90.3295 91.6968 90.0511 91.5035 89.8236C91.4413 89.7712 91.3608 89.7429 91.2778 89.7444H91.2612Z" fill="#009EC5"/>
<path d="M93.9538 8.04904L93.406 8.0332C93.406 8.0332 93.7712 8.34984 93.9538 8.04904Z" fill="#263238"/>
<path d="M101.358 31.7587L101.64 32.7086C101.676 32.7846 101.587 32.8574 101.457 32.8574H90.0963C89.9967 32.8574 89.9137 32.8099 89.9104 32.753L89.8108 31.803C89.8108 31.7365 89.8872 31.6827 89.9967 31.6827H101.188C101.221 31.6817 101.253 31.6881 101.283 31.7013C101.312 31.7145 101.338 31.7342 101.358 31.7587Z" fill="#009EC5"/>
<path opacity="0.2" d="M101.358 31.7587L101.64 32.7086C101.676 32.7846 101.587 32.8574 101.457 32.8574H90.0963C89.9967 32.8574 89.9137 32.8099 89.9104 32.753L89.8108 31.803C89.8108 31.7365 89.8872 31.6827 89.9967 31.6827H101.188C101.221 31.6817 101.253 31.6881 101.283 31.7013C101.312 31.7145 101.338 31.7342 101.358 31.7587Z" fill="#FAFAFA"/>
<path d="M99.8601 32.9495H100.162C100.222 32.9495 100.265 32.921 100.262 32.8862L100.122 31.6608C100.113 31.6392 100.097 31.6211 100.076 31.6091C100.055 31.5971 100.03 31.5919 100.006 31.5943H99.7073C99.6476 31.5943 99.6011 31.626 99.6044 31.6608L99.7438 32.8862C99.7438 32.921 99.7937 32.9495 99.8601 32.9495Z" fill="#263238"/>
<path d="M90.9391 32.949H91.2379C91.2976 32.949 91.3408 32.9205 91.3375 32.8856L91.198 31.6602C91.198 31.6254 91.1416 31.5938 91.0818 31.5938H90.783C90.7233 31.5938 90.6768 31.6254 90.6801 31.6602L90.8229 32.8856C90.8262 32.9205 90.8959 32.949 90.9391 32.949Z" fill="#263238"/>
<path d="M95.3976 32.949H95.6964C95.7561 32.949 95.7993 32.9205 95.796 32.8856L95.6565 31.6602C95.6565 31.6254 95.6001 31.5938 95.5403 31.5938H95.2415C95.1818 31.5938 95.1353 31.6254 95.1386 31.6602L95.2814 32.8856C95.2847 32.9205 95.3378 32.949 95.3976 32.949Z" fill="#263238"/>
<path d="M96.6963 32.275L94.3059 30.6475L94.5284 33.2756C94.5284 33.2756 96.1219 33.9563 97.015 33.3009L96.6963 32.275Z" fill="#FFB573"/>
<path d="M104.435 19.7773C104.641 21.3257 104.817 22.8804 104.98 24.4351C105.142 25.9898 105.295 27.5445 105.431 29.0992L105.454 29.3905V29.5457C105.454 29.628 105.454 29.7103 105.454 29.7926C105.457 30.1381 105.39 30.481 105.259 30.8027C105.011 31.3694 104.594 31.854 104.06 32.1959C103.641 32.4714 103.186 32.6919 102.705 32.8514C102.272 32.998 101.828 33.1164 101.377 33.206C99.6879 33.5136 97.9632 33.6073 96.248 33.4847L96.2314 32.1738C97.005 32.0756 97.8084 31.9585 98.5787 31.8096C99.3506 31.672 100.112 31.4837 100.856 31.246C101.506 31.0658 102.116 30.7762 102.659 30.3911C102.807 30.2901 102.917 30.1455 102.971 29.9795C102.98 29.9334 102.98 29.8862 102.971 29.8401L102.898 29.3683C102.659 27.82 102.437 26.2748 102.234 24.7232C102.031 23.1717 101.826 21.6202 101.66 20.0655L104.435 19.7773Z" fill="#FFB573"/>
<path d="M103.147 16.655C104.252 16.9717 105.584 20.6067 105.584 20.6067L101.291 23.5324C101.291 23.5324 99.7272 20.5022 100.192 19.1375C100.673 17.7189 101.885 16.2877 103.147 16.655Z" fill="#009EC5"/>
<path d="M91.7259 26.3063C90.6015 25.219 89.0957 24.5659 87.4974 24.4725C85.8991 24.3791 84.3209 24.8519 83.0657 25.8002C81.8105 26.7485 80.9667 28.1055 80.6962 29.6107C80.4257 31.116 80.7475 32.6635 81.5999 33.9563L81.3111 36.2298L83.6982 35.9574C85.053 36.7699 86.6746 37.0769 88.2521 36.8196C89.8297 36.5622 91.2521 35.7586 92.2468 34.5628C93.2414 33.367 93.7383 31.8632 93.6422 30.3396C93.5461 28.8159 92.8637 27.3797 91.7259 26.3063ZM85.2154 32.5124C84.8365 32.1511 84.5785 31.6907 84.474 31.1895C84.3695 30.6883 84.4231 30.1688 84.6282 29.6966C84.8332 29.2245 85.1804 28.821 85.6259 28.5371C86.0715 28.2532 86.5952 28.1016 87.1311 28.1016C87.6669 28.1016 88.1906 28.2532 88.6362 28.5371C89.0817 28.821 89.4289 29.2245 89.6339 29.6966C89.839 30.1688 89.8926 30.6883 89.7881 31.1895C89.6836 31.6907 89.4256 32.1511 89.0467 32.5124C88.7953 32.7527 88.4968 32.9434 88.1681 33.0735C87.8393 33.2035 87.4869 33.2705 87.1311 33.2705C86.7752 33.2705 86.4228 33.2035 86.094 33.0735C85.7653 32.9434 85.4668 32.7527 85.2154 32.5124Z" fill="#009EC5"/>
<path opacity="0.4" d="M91.7259 26.3063C90.6015 25.219 89.0957 24.5659 87.4974 24.4725C85.8991 24.3791 84.3209 24.8519 83.0657 25.8002C81.8105 26.7485 80.9667 28.1055 80.6962 29.6107C80.4257 31.116 80.7475 32.6635 81.5999 33.9563L81.3111 36.2298L83.6982 35.9574C85.053 36.7699 86.6746 37.0769 88.2521 36.8196C89.8297 36.5622 91.2521 35.7586 92.2468 34.5628C93.2414 33.367 93.7383 31.8632 93.6422 30.3396C93.5461 28.8159 92.8637 27.3797 91.7259 26.3063ZM85.2154 32.5124C84.8365 32.1511 84.5785 31.6907 84.474 31.1895C84.3695 30.6883 84.4231 30.1688 84.6282 29.6966C84.8332 29.2245 85.1804 28.821 85.6259 28.5371C86.0715 28.2532 86.5952 28.1016 87.1311 28.1016C87.6669 28.1016 88.1906 28.2532 88.6362 28.5371C89.0817 28.821 89.4289 29.2245 89.6339 29.6966C89.839 30.1688 89.8926 30.6883 89.7881 31.1895C89.6836 31.6907 89.4256 32.1511 89.0467 32.5124C88.7953 32.7527 88.4968 32.9434 88.1681 33.0735C87.8393 33.2035 87.4869 33.2705 87.1311 33.2705C86.7752 33.2705 86.4228 33.2035 86.094 33.0735C85.7653 32.9434 85.4668 32.7527 85.2154 32.5124Z" fill="black"/>
<path d="M92.0217 30.7456L92.3338 32.9368L94.5283 33.2756L94.3059 30.6475L92.0217 30.7456Z" fill="#FFB573"/>
<path d="M52.892 88.5224C45.5244 88.5227 38.322 86.4393 32.1959 82.5355C26.0698 78.6318 21.2951 73.0832 18.4755 66.5913C15.656 60.0994 14.9183 52.9558 16.3558 46.0641C17.7932 39.1723 21.3413 32.8419 26.5512 27.8733C26.6134 27.8144 26.6975 27.7812 26.7852 27.7812C26.8729 27.7812 26.9571 27.8144 27.0193 27.8733L30.9634 31.6318C31.026 31.6915 31.0611 31.7723 31.0611 31.8566C31.0611 31.941 31.026 32.0218 30.9634 32.0815C30.9009 32.1411 30.8161 32.1746 30.7277 32.1746C30.6393 32.1746 30.5545 32.1411 30.492 32.0815L26.7869 28.5478C20.0278 35.1114 16.2601 43.9554 16.3036 53.1551C16.347 62.3549 20.1982 71.1661 27.0191 77.6714C33.84 84.1766 43.0786 87.8496 52.7246 87.8911C62.3707 87.9326 71.6437 84.3392 78.5258 77.8928L74.814 74.3528C74.7515 74.2932 74.7164 74.2123 74.7164 74.128C74.7164 74.0436 74.7515 73.9628 74.814 73.9032C74.8765 73.8435 74.9613 73.81 75.0497 73.81C75.1381 73.81 75.2229 73.8435 75.2854 73.9032L79.2329 77.668C79.264 77.6974 79.2887 77.7325 79.3056 77.771C79.3225 77.8096 79.3311 77.851 79.3311 77.8928C79.3311 77.9346 79.3225 77.976 79.3056 78.0146C79.2887 78.0532 79.264 78.0882 79.2329 78.1176C75.7815 81.4265 71.6764 84.0499 67.155 85.8358C62.6336 87.6218 57.7858 88.5349 52.892 88.5224Z" fill="#009EC5"/>
<path d="M52.8924 83.2155C70.3921 83.2155 84.5785 69.6855 84.5785 52.9954C84.5785 36.3054 70.3921 22.7754 52.8924 22.7754C35.3926 22.7754 21.2063 36.3054 21.2063 52.9954C21.2063 69.6855 35.3926 83.2155 52.8924 83.2155Z" fill="#009EC5"/>
<g opacity="0.2">
<path d="M77.2479 28.2217L80.0899 28.741C79.8409 28.9215 79.6682 29.2001 79.4092 29.3742C81.4411 29.3964 83.5891 29.1748 85.5479 29.6909C87.3773 30.1785 88.9476 29.5547 90.8168 29.7447C91.9124 29.8587 104.007 30.6345 103.659 32.1987C102.805 32.072 101.69 31.6667 100.886 32.1132L102.327 32.7021C101.564 33.1043 99.5052 33.4462 99.5152 34.1397C99.5152 34.6368 100.232 34.8584 100.425 35.3017C100.617 35.745 100.531 36.448 100.574 36.9134C99.98 36.4005 98.3598 35.4854 98.134 34.7983C97.9083 34.1112 99.2263 32.8383 97.2908 33.1106C96.5836 33.2087 96.6566 33.8135 96.474 33.88C96.0225 34.0478 95.1826 33.9244 94.6912 33.9402C93.0611 33.994 93.1707 34.2885 92.4469 35.631C93.4263 35.7989 94.7078 35.7862 95.3486 36.4005C95.9893 37.0147 96.484 39.0476 95.7669 39.6714C95.415 39.988 94.9103 39.741 94.6879 39.9088C94.4655 40.0767 94.0704 40.9664 94.1434 41.2102C94.3493 41.8973 96.6068 42.6668 94.5883 43.1734C94.3326 42.7713 93.7682 41.3495 93.3234 41.1817C92.6959 40.9442 91.9489 41.8847 91.929 40.6434L91.0259 41.378C91.2405 41.6262 91.5241 41.8116 91.8441 41.913C92.1642 42.0144 92.5077 42.0276 92.8353 41.9512C91.5571 42.2678 92.4303 43.2177 92.8154 43.6515C93.4097 44.3164 93.4429 44.3354 93.4794 45.0795C93.5491 46.4474 92.5664 47.543 91.0923 47.8533C90.352 48.0085 89.8141 47.7741 89.336 48.2713C88.609 49.0217 89.3161 49.0819 89.7245 49.7056C90.01 50.1458 90.591 51.0324 90.4947 51.5643C90.4117 52.0171 89.4987 52.5744 89.1037 52.929C88.6023 52.2293 88.2272 51.2983 87.2577 51.0735C87.1714 52.2293 87.0619 52.6726 87.9217 53.5686C88.1873 53.8441 88.516 53.9834 88.6986 54.2811C88.8812 54.5787 88.8347 55.2088 89.0306 55.5983C86.4941 54.3001 86.8892 51.824 86.0194 49.5283C85.4417 50.9342 84.8806 49.0122 84.6283 48.5784C84.0572 47.6285 83.463 47.3119 82.3375 47.9451C81.793 48.2459 80.3256 49.5758 80.1098 50.1204C79.6118 51.368 80.5181 51.8715 79.4458 52.9702C78.6423 52.4287 78.4498 51.2413 78.151 50.4371C77.819 49.5568 77.2313 48.5784 77.321 47.619C76.73 48.8254 75.8934 47.3309 75.3489 46.8907C74.5455 46.2574 74.0209 46.5361 72.9485 46.4411C72.53 46.3663 72.1198 46.2539 71.7234 46.1055C71.9326 46.1593 71.2454 45.7192 71.3417 45.7572C71.1989 45.697 70.9731 45.9566 70.7739 45.8838C70.1465 45.6495 68.9745 44.4399 68.42 44.7407C68.6591 45.1904 69.1339 46.4759 69.6186 46.7324C70.3722 47.1314 70.9466 46.3176 71.5276 46.4158C71.9757 46.7045 72.3688 47.0644 72.6896 47.4797C72.7892 47.8945 72.6896 47.7457 72.3576 48.2871C71.9768 48.9869 71.3607 49.5445 70.6079 49.8703C70.0203 50.1869 68.6558 51.0102 67.9519 51.026C67.0356 51.045 67.0522 50.6714 66.6604 49.9685C66.2687 49.2655 64.4593 45.0131 63.5762 45.4943C64.2667 46.9192 64.8544 48.4549 65.7076 49.807C66.0131 50.2914 66.8796 51.8683 67.434 52.0836C68.098 52.3401 69.3662 51.767 69.9472 51.5991C69.665 54.1323 67.4838 55.0822 66.2089 57.0327C65.0536 58.7869 67.1551 60.8323 65.7641 62.3712C65.3922 62.786 64.3597 62.9792 64.1041 63.451C63.8916 63.8404 64.2966 64.4357 64.1705 64.8695C64.0044 65.4363 63.6459 65.2305 63.2807 65.7308C62.9819 66.1361 63.0782 66.7187 62.7362 67.181C62.4623 67.6091 62.0975 67.9779 61.6652 68.2637C61.233 68.5494 60.7428 68.7458 60.2263 68.8402C58.636 69.1821 58.4999 69.1346 57.9787 67.8079L56.3685 63.7359C55.9634 62.7068 56.1327 62.2984 56.4581 61.2028C56.7835 60.1072 56.903 59.8571 56.4216 58.8629C56.0642 58.2427 55.7503 57.6006 55.482 56.9408C55.3061 56.3772 55.482 55.9593 55.4057 55.3735C55.3393 54.9112 55.3592 54.6611 54.9077 54.2843C54.7848 54.1798 54.3599 54.3951 54.2071 54.3191C54.0544 54.2431 53.9116 53.7808 53.7224 53.746C52.9289 53.6035 51.84 54.1101 50.9237 54.1449C49.5293 54.1956 48.5996 54.1734 47.6833 53.3565C46.767 52.5396 45.9669 51.6118 45.8938 50.3833C45.7345 47.6982 47.8294 46.7166 48.9914 44.5508C49.3765 43.832 48.9914 43.5692 49.9708 43.0182C50.4655 42.7364 50.6016 42.7617 51.2225 42.6509C52.6965 42.3881 54.247 42.3343 55.7377 42.1633C55.6082 43.2335 55.5152 43.0721 56.4282 43.5977C57.1553 44.0156 57.9986 44.3228 58.7522 44.6774C59.0078 43.1544 61.1459 44.2658 62.3212 44.3608C64.1206 44.5128 63.8052 43.6958 64.1074 42.2615C63.4035 42.2963 62.4773 42.4958 61.8066 42.2836C60.8106 41.967 60.9633 41.5649 60.8106 40.6814L59.7017 40.8746C59.8196 41.0865 59.8875 41.3204 59.9007 41.56C59.9139 41.7995 59.8721 42.0389 59.7781 42.2615C59.4001 41.9338 59.0525 41.5758 58.7389 41.1912C58.5928 40.9632 58.5796 40.5199 58.4468 40.3521C57.9687 39.7473 57.0557 39.2502 56.4348 38.7689C55.6912 39.779 57.4308 40.5643 58.1878 40.9537C57.4674 41.7643 57.2648 42.5749 56.2323 41.701C57.3943 41.7707 57.5238 41.4857 56.9528 40.7226C56.3452 39.9057 55.5418 39.456 54.6786 39.5035C54.5458 39.5035 54.4429 39.8487 54.3101 39.8613C54.1773 39.874 53.7722 39.6049 53.6461 39.665C53.5199 39.7252 53.2908 39.589 53.1779 39.6365C53.0651 39.684 53.2344 40.0703 53.1779 40.121C52.67 40.5516 52.2981 41.2102 51.8499 41.6503C51.2557 42.2425 50.6182 42.7744 49.7085 42.2836C49.0445 41.9132 48.7989 40.6529 49.2371 39.9912C49.7716 39.1837 50.9502 40.1906 51.7171 39.646C52.4841 39.1014 51.4549 38.2655 51.0531 37.8443C51.682 37.6663 52.2957 37.443 52.8891 37.1762C53.5531 36.8121 53.3639 36.524 53.905 36.144C54.3233 35.8464 54.6055 36.03 54.8778 35.6912C55.2795 35.1941 54.3997 34.6685 55.5783 34.6178C54.9342 36.201 57.8392 36.0047 58.6792 35.4379C58.8585 35.3176 58.7024 34.9154 58.8286 34.7444C58.9888 34.5926 59.162 34.4539 59.3465 34.3297V33.9085H59.9109C60.2894 33.6425 60.5483 34.127 60.7342 33.4747C59.9175 33.6077 59.4494 33.8927 58.9282 33.3861C58.1911 32.6705 58.8219 32.4995 59.476 31.9992C58.2775 31.1823 56.5145 33.4937 57.982 33.6995C57.7064 34.0162 56.9661 35.2986 56.5577 35.3809C55.7443 35.5487 55.8937 34.469 55.7841 33.9434C55.2397 34.1492 54.8711 34.4056 54.5026 34.184C54.0777 33.9307 54.0909 33.2531 54.2138 33.0441C54.4661 32.6166 55.6215 32.471 56.0597 32.1385C56.4979 31.806 56.7237 31.1189 57.2283 30.8118C58.9116 29.7605 62.2415 30.1468 63.7787 31.2709C63.0782 31.6762 62.205 31.4102 61.4348 31.3247C61.8863 31.8947 62.5171 32.5913 63.3371 32.3475C63.4401 32.3158 63.6326 31.8155 63.8252 31.6984C64.2667 31.4229 65.027 31.2962 65.5317 31.1253C67.2215 30.5585 68.5196 30.5458 70.2992 30.8561C69.4326 28.6396 70.8337 29.9062 72.4439 29.6307C73.2141 29.5009 73.9213 28.9215 74.665 28.6966C75.5154 28.49 76.3779 28.3314 77.2479 28.2217Z" fill="black"/>
<path d="M52.5338 36.8567L50.595 37.262C50.8075 36.9644 51.3851 36.4356 51.4183 36.1063C51.4847 35.4065 51.0863 35.7706 50.9668 35.511C50.4157 34.4281 50.7145 34.3933 51.7404 33.8486C51.8798 34.3838 51.9196 35.1374 52.2018 35.6345C52.484 36.1316 53.334 36.3627 52.5338 36.8567Z" fill="black"/>
<path d="M50.7808 35.5649C50.2164 36.4895 50.6779 36.48 49.3599 36.6826C49.6985 35.9354 49.5059 35.0868 50.7808 35.5649Z" fill="black"/>
<path d="M67.5504 30.1279C65.2562 29.4661 68.8551 28.5036 69.3066 28.3959C68.3704 28.3959 67.0656 28.2154 66.3186 28.9152C65.4986 29.691 66.4714 30.5649 67.5504 30.1279Z" fill="black"/>
<path d="M56.9857 28.3963L57.8157 27.763C57.0808 27.4739 56.275 27.3894 55.4917 27.5192L56.9857 28.3963Z" fill="black"/>
<path d="M57.4475 27.2842C58.0584 27.9175 58.8884 27.6008 59.7018 27.5027C58.9481 27.4013 58.2078 27.3317 57.4475 27.2842Z" fill="black"/>
<path d="M95.8767 43.3948C96.062 43.7624 96.3049 44.1009 96.5972 44.3986C96.9292 43.0212 97.8322 43.7241 98.7784 42.8882C99.2897 42.4386 99.2531 41.4887 98.5725 40.8459C97.6164 39.9371 98.38 41.3367 97.9982 41.9795C97.5732 42.6761 96.4245 42.7077 95.8767 43.3948Z" fill="black"/>
<path d="M97.8023 40.4286L98.0977 40.3241C98.0513 40.2196 98.0015 40.1151 97.9517 40.0074C98.4961 40.1974 99.0406 40.1943 99.2066 39.6275L97.3972 38.915C97.9019 39.5768 97.125 39.9315 97.8023 40.4286Z" fill="black"/>
<path d="M97.2668 38.6611H97.7283C97.0504 37.6314 96.2842 36.657 95.4375 35.748C95.142 36.3972 96.8219 38.0088 97.2668 38.6611Z" fill="black"/>
<path d="M94.1834 46.584C93.6555 46.8088 93.6787 47.3154 94.0473 47.7397L94.1834 46.584Z" fill="black"/>
<path d="M90.1823 48.5947H90.7467C90.5741 49.0982 90.6471 49.0317 90.106 49.0918L90.1823 48.5947Z" fill="black"/>
<path d="M85.6743 53.8789C87.6232 54.661 89.5288 56.317 89.5288 58.2834C88.5162 58.2074 87.7858 56.9725 87.3675 56.2505C86.9492 55.5286 85.8768 54.566 85.6743 53.8789Z" fill="black"/>
<path d="M91.4315 55.5321L90.8604 55.4118C90.306 56.8715 92.1021 58.2616 93.2807 57.1787C93.8252 56.6784 93.7123 55.7506 93.8252 55.1585C93.9845 54.3321 94.3166 54.0471 93.4633 53.417L91.4315 55.5321Z" fill="black"/>
<path d="M93.4065 53.1733C93.8215 52.6952 94.4025 52.2582 94.4025 51.6123C94.0738 52.1443 93.7385 52.654 93.4065 53.1733Z" fill="black"/>
<path d="M94.8303 51.3368C94.1663 50.4534 94.2095 50.1652 94.2925 49.0918C95.0993 49.1805 94.6909 50.257 95.1789 50.8048C95.8828 51.5932 96.7427 51.5869 96.7991 52.8471C96.8323 53.6071 96.3941 54.2752 95.5043 53.4551C94.9167 52.9136 95.3084 52.0144 94.8303 51.3368Z" fill="black"/>
<path d="M96.4179 55.5479C95.641 55.9405 94.8907 55.3325 94.406 56.2096C95.07 55.7473 95.5912 55.95 96.325 56.0798C96.3771 55.9064 96.4083 55.728 96.4179 55.5479Z" fill="black"/>
<path d="M95.6802 56.3105C94.9233 56.833 94.5216 56.1396 94.2161 57.0958C94.0933 57.4789 94.2925 58.2959 94.7374 58.2832C94.7208 57.8273 94.5448 57.3333 94.9299 57.0388C94.8336 57.5898 95.0362 57.9381 95.6802 57.7164L95.1424 56.7665C95.3881 56.7918 95.6537 56.6683 95.8994 56.6968L95.6802 56.3105Z" fill="black"/>
<path d="M92.6131 59.0691C91.8794 58.8854 90.1297 58.0843 89.5288 58.6004C90.2858 58.9203 91.9889 59.7435 92.6131 59.0691Z" fill="black"/>
<path d="M97.5626 55.1328C97.3754 55.3086 97.2553 55.5392 97.2216 55.7877C97.1879 56.0363 97.2425 56.2884 97.3767 56.5039C97.5016 56.2986 97.5825 56.0716 97.6144 55.8362C97.6463 55.6008 97.6287 55.3617 97.5626 55.1328Z" fill="black"/>
<path d="M97.4233 57.2097C97.513 57.6245 97.9877 57.5264 98.4857 57.5739C98.3861 57.1211 97.9379 57.1021 97.4233 57.2097Z" fill="black"/>
<path d="M96.9155 57.21L97.118 57.3936C96.9942 57.4396 96.8568 57.4396 96.7329 57.3936L96.9155 57.21Z" fill="black"/>
<path d="M98.5591 56.5043C98.5591 57.4542 99.5219 57.7424 100.219 58.0432C100.916 58.344 101.72 58.6479 100.624 59.3287C101.152 59.2559 101.604 59.5884 102.019 59.5535C102.24 59.5689 102.461 59.5689 102.683 59.5535C102.855 59.5155 102.945 58.9646 103.117 58.9614C103.625 58.9614 103.559 59.1419 104.011 59.4522C104.418 59.792 104.907 60.0302 105.435 60.1456C104.821 59.4364 104.143 58.2965 103.393 57.7518C103.061 57.5112 101.653 56.8969 101.202 56.8874C100.664 56.8874 100.505 57.0837 99.9867 57.4574C99.7875 56.8209 99.482 55.9438 98.5591 56.5043Z" fill="black"/>
<path d="M104.452 58.0618C105.036 58.4766 106.776 58.35 106.225 57.457C105.72 58.1315 105.278 58.0618 104.452 58.0618Z" fill="black"/>
<path d="M98.8014 60.3164C98.5524 60.614 97.9581 61.6463 97.5995 61.7571C97.0418 61.9249 96.8259 61.412 96.391 61.4879C95.4382 61.6589 94.4223 63.2643 93.5956 63.7266C92.1614 64.5245 91.4011 64.306 91.1952 66.0729C91.1222 66.722 91.4741 67.4756 91.3148 68.1089C91.1687 68.6947 90.3188 68.9606 91.4144 69.2868C92.4535 69.6034 94.5518 68.4635 95.6507 68.2672C96.2416 68.1595 96.5072 67.9506 97.0949 68.2672C97.5663 68.53 97.5829 69.0208 97.9016 69.4641C99.8638 72.203 103.214 69.4831 104.359 67.4788C105.133 66.1362 104.751 65.0438 103.884 63.8437C103.512 63.3308 103.297 63.2105 103.051 62.631C102.746 61.9091 102.643 61.0478 102.443 60.3037L101.139 62.8368C99.9069 61.9661 99.4786 62.0421 100.206 60.7787L98.8014 60.3164Z" fill="black"/>
<path d="M99.2695 71.3447L100.82 71.4365C100.365 72.0065 100.073 72.7918 99.1599 72.548L99.2695 71.3447Z" fill="black"/>
<path d="M105.056 73.2894C106.245 73.8878 106.258 73.6757 107.38 72.9727C107.985 72.5928 109.545 72.1115 108.708 71.3389L105.056 73.2894Z" fill="black"/>
<path d="M109.021 71.345C109.134 71.5123 109.267 71.6674 109.416 71.8073C109.748 71.5539 111.169 70.775 111.222 70.4235C111.275 70.0721 110.428 69.3786 110.153 69.0557L109.021 71.345Z" fill="black"/>
<path d="M114.518 62.5547C114.323 62.6353 114.138 62.7339 113.963 62.8492C114.468 63.2038 115.072 63.1626 114.518 62.5547Z" fill="black"/>
<path d="M108.921 63.8027C108.921 63.8027 110.468 64.9362 110.345 64.5848C110.189 64.1446 109.379 63.771 108.921 63.8027Z" fill="black"/>
<path d="M93.0613 59.208C93.2738 59.9394 95.9397 59.3727 96.7332 59.208H93.0613Z" fill="black"/>
<path d="M94.406 59.7617C94.572 60.1164 95.4584 60.4995 95.6975 60.0404L94.406 59.7617Z" fill="black"/>
<path d="M69.3596 60.7344C68.6027 61.3867 67.6498 61.9313 67.424 62.8527C67.3045 63.334 66.9393 65.3478 67.3842 65.6581C68.4134 66.38 68.7587 64.1477 68.9579 63.6221C69.4061 62.4284 69.6485 61.9598 69.3596 60.7344Z" fill="black"/>
<path d="M48.5864 31.4577C49.35 31.6541 49.7152 31.4261 50.4058 31.1411C50.0273 30.8213 47.6004 30.6788 48.5864 31.4577Z" fill="black"/>
<path d="M28.723 54.0756C28.0823 55.0888 27.4814 55.9058 27.2622 57.0457C26.9701 58.5655 27.3917 58.9455 28.235 60.3165C28.4615 60.7904 28.7481 61.2359 29.0882 61.6432C29.5796 62.1214 30.4162 62.2955 30.9308 62.7705C31.7077 63.5114 31.5284 64.1827 31.5948 65.3036C31.7542 67.6879 31.6513 70.0817 32.4746 72.3583C32.8896 73.5077 33.1187 74.4608 33.9487 75.3696C35.1373 76.6741 35.5722 76.7121 37.3617 76.7121C35.9042 75.6134 35.2966 75.4455 35.2634 73.7737C35.2302 72.2348 35.0941 71.7915 36.0901 70.6073C37.9626 68.3908 40.5555 66.1744 41.5548 63.5304C41.8824 62.6628 42.2089 61.7952 42.5342 60.9276C42.7235 60.4274 43.58 59.05 43.4406 58.5212C43.2447 57.7834 40.6153 57.2293 39.6824 56.8937C39.2873 56.748 38.444 56.6024 38.1618 56.3142C37.6306 55.7759 37.8099 54.6867 37.3119 54.1199C36.6479 53.3568 33.952 52.4734 32.9029 52.1821C32.1493 51.9731 31.8737 52.0048 31.0105 52.1219C30.2502 52.2232 29.4136 52.6032 28.7562 52.6887C28.1949 52.6901 27.6362 52.6166 27.0962 52.4702C26.1534 52.0016 26.5949 51.0643 26.7277 50.3329L24.8785 50.1271L25.8745 47.9106C25.0943 48.1228 24.9084 48.4204 24.3473 48.6959C23.9821 48.8732 23.2085 49.2943 22.7603 49.0727C21.7643 48.5787 21.937 46.5396 22.5279 45.7986C23.0259 45.1653 24.8718 44.7189 25.8247 44.6271C27.7171 44.4466 27.6407 45.2603 28.1653 46.6599C28.8758 45.8018 28.069 44.9025 28.4973 44.0951C28.8525 43.4428 30.2901 43.0154 30.8644 42.4581C32.4879 40.8939 33.122 39.64 35.4162 38.8706V39.3329L37.3849 38.5919H35.9806C36.0248 38.2236 36.1703 37.873 36.4022 37.5755L34.9248 37.7845C36.1665 37.1512 38.0755 37.3824 39.1312 36.7428C40.2534 36.062 38.8557 34.3775 38.444 33.5289L37.0894 34.292C36.5815 33.5985 37.5244 33.4149 36.3391 32.9906C35.3431 32.6391 35.1937 32.9906 34.6592 33.5732C34.1247 34.1558 32.6672 36.9074 31.7708 36.9042C32.0331 35.853 32.3584 35.7263 31.4886 35.264C30.9176 34.9474 29.0119 35.0931 29.2874 33.9975C29.4767 33.2471 32.8033 32.0027 33.6433 31.5467C33.4906 31.8127 33.4574 32.1325 33.3113 32.4016L34.9148 32.3795L33.9188 31.5467C35.1705 31.3979 35.3962 31.4834 36.0138 30.4828C35.197 30.3308 34.6426 30.7994 33.9952 31.1762C34.1678 30.3213 33.1652 30.6126 32.5078 30.6031L27.986 30.5366C26.814 30.5366 25.6122 30.429 24.4436 30.486C23.5704 30.5303 22.684 30.8469 21.8174 30.8406C19.6229 30.8406 18.1256 29.9382 15.9311 30.4258C13.6071 30.9388 12.2791 31.9552 10.3302 33.2344C10.566 33.4972 10.805 33.76 11.044 34.0197L9.38403 35.1311C11.1138 34.5769 13.5075 33.3135 15.3069 33.399C16.3527 33.4497 17.4682 33.7537 17.7305 34.4883C17.9928 35.2229 17.8135 36.5243 17.5911 37.2367C17.0864 38.8579 14.5732 41.2929 15.7618 43.1294C15.9145 43.3668 16.4258 43.3953 16.5918 43.6487C16.874 44.0761 16.6283 45.0102 16.7511 45.5073C16.9038 46.1406 17.4151 47.4673 18.275 47.4293C17.7139 46.2198 17.3354 45.3712 17.2159 44.0793C18.2119 44.3421 19.1814 46.6124 19.364 47.3913C19.4436 47.7333 19.2776 48.2146 19.4204 48.4869C19.613 48.8542 20.9941 49.5825 21.3659 49.7313C21.8838 49.9371 22.5611 49.7313 23.0525 49.9498C23.4177 50.1049 24.0153 50.7509 24.3805 50.9978C24.6527 51.1783 24.9947 51.1403 25.237 51.343C25.4794 51.5456 25.569 52.0079 25.8048 52.2581C26.2264 52.6887 26.9435 52.9547 27.5013 53.2555C27.8167 51.9414 28.5637 53.7083 28.723 54.0756Z" fill="black"/>
<path d="M26.6677 47.7108C28.019 47.2136 28.8158 48.7177 30.1637 48.4739C28.7162 47.7582 28.1949 47.1566 26.6677 47.7108Z" fill="black"/>
<path d="M30.4723 48.6416C31.1363 48.7081 32.0526 48.5466 32.2452 49.221C31.4451 49.3572 30.7711 49.5788 30.0308 49.1514C30.2798 49.1514 30.5454 49.0564 30.7944 49.0469L30.4723 48.6416Z" fill="black"/>
<path d="M28.6863 49.0469C28.9269 49.084 29.1652 49.1337 29.4001 49.1957C29.1755 49.3118 28.9354 49.3981 28.6863 49.4522V49.0469Z" fill="black"/>
<path d="M32.6001 49.0469C32.6831 49.1598 32.8046 49.2417 32.9438 49.2786C33.0831 49.3156 33.2315 49.3053 33.3637 49.2495C33.128 49.183 32.8591 49.1007 32.6001 49.0469Z" fill="black"/>
<path d="M39.0285 36.8916L37.7935 38.0188L39.9349 38.5286C39.905 38.2342 39.9747 37.6515 39.822 37.3824C39.6394 37.0468 38.9588 37.6832 39.0285 36.8916Z" fill="black"/>
<path d="M37.7926 31.1407L35.6778 32.04C36.292 32.249 37.6698 33.0121 38.2906 32.9202C38.9115 32.8284 39.9174 31.7613 40.432 31.394C39.768 30.8019 38.8351 29.6019 37.9785 29.3137C37.3954 29.1452 36.7781 29.1149 36.1799 29.2252C35.5818 29.3356 35.0208 29.5833 34.5457 29.947C34.7781 30.1338 35.1167 30.5518 35.4089 30.6404C35.6114 30.7038 35.9666 30.3491 36.1791 30.384C36.78 30.4821 37.5934 30.5486 37.7926 31.1407Z" fill="black"/>
<path d="M37.0826 30.8623C36.1397 31.1219 36.7107 31.4006 37.3548 31.0586L37.0826 30.8623Z" fill="black"/>
<path d="M32.8733 30.8625C31.4291 29.9126 34.3872 28.874 35.2371 28.874C34.8022 29.1147 33.8327 29.4471 33.6103 29.8239C33.3215 30.3337 34.0253 31.1728 32.8733 30.8625Z" fill="black"/>
<path d="M26.7178 30.8622C26.7178 30.4822 27.2822 29.8426 27.4781 29.4975C26.9038 29.6432 26.0572 30.1561 25.8181 29.4975C26.8606 29.1619 27.425 28.8959 28.4542 29.0795C29.656 29.2949 30.0046 29.5133 31.233 29.3138C31.0106 29.8521 30.7317 30.2828 30.901 30.8622H26.7178Z" fill="black"/>
<path d="M28.3906 28.4813C29.8879 29.1589 30.7146 28.9499 32.3746 28.7694C31.8102 28.6491 31.0466 28.2438 30.5254 28.1805C29.9012 28.1045 29.0247 28.3958 28.3906 28.4813Z" fill="black"/>
<path d="M32.6772 29.0605C32.3488 29.1167 32.0265 29.2014 31.7144 29.3138C31.812 29.5186 31.9456 29.706 32.1094 29.8679L33.4872 29.0605C33.2174 29.0462 32.947 29.0462 32.6772 29.0605Z" fill="black"/>
<path d="M33.1917 28.5288C33.8357 28.9277 35.7182 28.7409 36.4917 28.7947C37.5575 28.8707 37.7666 28.7947 38.7228 28.3419C40.4791 27.4997 42.2619 27.221 44.2008 26.8157C42.1855 26.8157 40.0076 26.5909 38.0123 26.8157C36.93 26.9392 33.2614 27.3097 33.1917 28.5288Z" fill="black"/>
<path d="M41.03 28.348C42.7597 27.8382 44.1907 27.4393 46.01 27.3253C47.7832 27.206 49.5648 27.275 51.322 27.5311C50.502 28.3259 49.5857 29.6272 48.5299 30.1085C47.7663 30.4568 46.7205 30.3049 45.9569 30.6532C45.3659 30.9255 44.8281 31.5619 44.3334 31.9672C43.0851 33.0026 42.4908 31.85 42.7066 30.6215C42.793 30.1149 43.4569 29.2378 42.866 28.7217C42.4443 28.3955 41.5015 28.7312 41.03 28.348Z" fill="black"/>
</g>
<path d="M52.8918 92.7712C52.8038 92.7712 52.7193 92.7379 52.6571 92.6785C52.5948 92.6191 52.5598 92.5386 52.5598 92.4546V88.2053C52.5598 88.1213 52.5948 88.0408 52.6571 87.9814C52.7193 87.922 52.8038 87.8887 52.8918 87.8887C52.9799 87.8887 53.0643 87.922 53.1266 87.9814C53.1888 88.0408 53.2238 88.1213 53.2238 88.2053V92.4546C53.2238 92.5386 53.1888 92.6191 53.1266 92.6785C53.0643 92.7379 52.9799 92.7712 52.8918 92.7712Z" fill="#009EC5"/>
<path d="M62.4073 92.4553C62.4073 92.9682 58.1478 93.383 52.8922 93.383C47.6367 93.383 43.3738 92.9682 43.3738 92.4553C43.3738 91.9423 47.6367 90.6631 52.8922 90.6631C58.1478 90.6631 62.4073 91.9423 62.4073 92.4553Z" fill="#009EC5"/>
</svg>
