<svg width="24" height="25" viewBox="0 0 24 25" fill="none" xmlns="http://www.w3.org/2000/svg">
<g clip-path="url(#clip0_28_6582)">
<path d="M15.6005 12.1889C15.6005 13.1437 15.2212 14.0594 14.5461 14.7345C13.8709 15.4097 12.9552 15.7889 12.0005 15.7889C11.0457 15.7889 10.13 15.4097 9.45488 14.7345C8.77975 14.0594 8.40047 13.1437 8.40047 12.1889C8.40047 11.9837 8.42207 11.7833 8.45927 11.5889H7.20047V16.3853C7.20047 16.7189 7.47047 16.9889 7.80407 16.9889H16.1981C16.3579 16.9886 16.5112 16.9249 16.6241 16.8117C16.737 16.6986 16.8005 16.5452 16.8005 16.3853V11.5889H15.5417C15.5789 11.7833 15.6005 11.9837 15.6005 12.1889ZM12.0005 14.5889C12.3157 14.5889 12.6279 14.5267 12.9191 14.406C13.2103 14.2853 13.4749 14.1084 13.6978 13.8854C13.9206 13.6624 14.0974 13.3977 14.218 13.1065C14.3385 12.8152 14.4005 12.503 14.4005 12.1877C14.4004 11.8725 14.3382 11.5603 14.2175 11.2691C14.0968 10.9779 13.9199 10.7133 13.6969 10.4904C13.474 10.2676 13.2093 10.0908 12.918 9.97025C12.6267 9.84968 12.3145 9.78767 11.9993 9.78775C11.3626 9.7879 10.7521 10.041 10.302 10.4913C9.85188 10.9416 9.59911 11.5523 9.59927 12.1889C9.59943 12.8256 9.8525 13.4362 10.3028 13.8863C10.7531 14.3363 11.3638 14.5891 12.0005 14.5889ZM14.8805 9.66895H16.3193C16.4149 9.66895 16.5065 9.63106 16.5743 9.56358C16.642 9.4961 16.6802 9.40453 16.6805 9.30895V7.87015C16.6805 7.77435 16.6424 7.68248 16.5747 7.61474C16.5069 7.547 16.4151 7.50895 16.3193 7.50895H14.8805C14.7847 7.50895 14.6928 7.547 14.6251 7.61474C14.5573 7.68248 14.5193 7.77435 14.5193 7.87015V9.30895C14.5205 9.50695 14.6825 9.66895 14.8805 9.66895ZM12.0005 0.668945C8.94518 0.668945 6.01502 1.88266 3.8546 4.04308C1.69418 6.20349 0.480469 9.13365 0.480469 12.1889C0.480469 15.2442 1.69418 18.1744 3.8546 20.3348C6.01502 22.4952 8.94518 23.7089 12.0005 23.7089C13.5133 23.7089 15.0113 23.411 16.409 22.832C17.8067 22.2531 19.0766 21.4045 20.1463 20.3348C21.2161 19.2651 22.0646 17.9951 22.6436 16.5975C23.2225 15.1998 23.5205 13.7018 23.5205 12.1889C23.5205 10.6761 23.2225 9.1781 22.6436 7.78043C22.0646 6.38276 21.2161 5.11281 20.1463 4.04308C19.0766 2.97334 17.8067 2.12479 16.409 1.54585C15.0113 0.966919 13.5133 0.668945 12.0005 0.668945ZM18.0005 16.8557C18.0005 17.5889 17.4005 18.1889 16.6673 18.1889H7.33367C6.60047 18.1889 6.00047 17.5889 6.00047 16.8557V7.52215C6.00047 6.78895 6.60047 6.18895 7.33367 6.18895H16.6673C17.4005 6.18895 18.0005 6.78895 18.0005 7.52215V16.8557Z" fill="white"/>
</g>
<defs>
<clipPath id="clip0_28_6582">
<rect width="24" height="24" fill="white" transform="translate(0 0.188965)"/>
</clipPath>
</defs>
</svg>
