<svg width="24" height="25" viewBox="0 0 24 25" fill="none" xmlns="http://www.w3.org/2000/svg">
<g clip-path="url(#clip0_28_6584)">
<path d="M12.0005 0.668945C5.63807 0.668945 0.480469 5.82655 0.480469 12.1889C0.480469 18.5513 5.63807 23.7089 12.0005 23.7089C18.3629 23.7089 23.5205 18.5513 23.5205 12.1889C23.5205 5.82655 18.3629 0.668945 12.0005 0.668945ZM9.18047 16.9637H6.84767V9.45655H9.18047V16.9637ZM7.99967 8.53495C7.26287 8.53495 6.78647 8.01295 6.78647 7.36735C6.78647 6.70855 7.27727 6.20215 8.02967 6.20215C8.78207 6.20215 9.24287 6.70855 9.25727 7.36735C9.25727 8.01295 8.78207 8.53495 7.99967 8.53495ZM17.7005 16.9637H15.3677V12.8033C15.3677 11.8349 15.0293 11.1773 14.1857 11.1773C13.5413 11.1773 13.1585 11.6225 12.9893 12.0509C12.9269 12.2033 12.9113 12.4193 12.9113 12.6341V16.9625H10.5773V11.8505C10.5773 10.9133 10.5473 10.1297 10.5161 9.45535H12.5429L12.6497 10.4981H12.6965C13.0037 10.0085 13.7561 9.28615 15.0149 9.28615C16.5497 9.28615 17.7005 10.3145 17.7005 12.5249V16.9637Z" fill="white"/>
</g>
<defs>
<clipPath id="clip0_28_6584">
<rect width="24" height="24" fill="white" transform="translate(0 0.188965)"/>
</clipPath>
</defs>
</svg>
