<svg width="130" height="136" viewBox="0 0 130 136" fill="none" xmlns="http://www.w3.org/2000/svg">
<path d="M102.311 100.111L97.6244 101.681L97.6884 100.879C97.8697 98.582 98.055 96.1607 98.2457 93.5727L98.271 93.2207L102.534 91.7914C103.534 91.4581 104.346 90.7487 104.822 89.7954C105.296 88.8434 105.372 87.7687 105.036 86.7674L104.91 86.386C104.575 85.386 103.866 84.574 102.914 84.1007C101.96 83.6234 100.886 83.5487 99.8857 83.8834L98.9137 84.21L98.9697 83.414C99.2337 79.5727 99.5124 75.402 99.8097 70.8274L99.8297 70.4954L100.139 70.37C120.672 62.0447 130.422 54.3434 128.331 48.102C125.323 39.1207 106.358 43.282 92.3604 47.202L92.0337 47.2914L91.8137 47.0354C88.839 43.5834 86.119 40.4367 83.6044 37.5421L83.0804 36.9394L84.055 36.6154C85.055 36.2807 85.867 35.5714 86.3417 34.6194C86.8177 33.6674 86.8924 32.5914 86.5577 31.5887L86.431 31.2114C86.0964 30.2114 85.3844 29.3994 84.4324 28.9234C83.4817 28.4514 82.407 28.3701 81.4044 28.7087L77.1444 30.134L76.911 29.8687C75.199 27.9194 73.5924 26.0941 72.0644 24.3714L71.5324 23.7687L76.219 22.1994C78.2937 21.5047 79.4164 19.2501 78.7217 17.1727L78.595 16.7927C77.899 14.7167 75.6484 13.5941 73.5697 14.2901L66.2617 16.7394C66.131 16.7834 66.0017 16.8327 65.879 16.8914L65.5217 17.0567L65.2577 16.766C62.095 13.27 59.0244 9.93271 55.5964 6.26471C50.3097 0.604713 48.2817 0.86204 47.6537 1.24071C46.399 1.98871 46.415 5.30738 47.6977 9.13405C55.0897 31.2087 61.6377 47.7554 64.8817 55.6527L65.087 56.1554L64.5804 56.3514C51.1537 61.514 37.3364 68.0141 27.615 73.7407L27.2977 73.9287L27.0097 73.6954C16.1644 64.866 11.7804 62.3327 10.907 61.866C2.86036 64.102 1.37636 65.6007 1.1137 65.9127C6.70703 72.3754 12.5684 78.5447 15.5817 81.6647L15.939 82.034L15.5817 82.4047C13.8937 84.15 13.175 85.5874 13.5017 86.5634C13.8297 87.5447 15.2923 88.2607 17.7283 88.6367L18.2377 88.7167L18.1764 89.2274C17.6457 93.5567 16.675 102.045 16.099 110.598C16.6404 110.759 18.8497 110.937 26.3537 107.981C26.7697 107.077 28.7564 102.383 32.119 88.6874L32.2084 88.3274L32.5777 88.286C43.7697 86.9967 58.6817 83.8674 72.4684 79.914L72.991 79.7647L73.131 80.2901C75.2857 88.5154 80.0097 105.611 87.415 127.719C88.6964 131.55 90.7137 134.183 92.1337 134.046C92.859 133.967 94.6377 132.951 95.4484 125.25C95.9844 120.181 96.4257 115.669 96.8364 111.05L96.871 110.669L97.247 110.581C97.383 110.547 97.5204 110.51 97.6564 110.466L104.962 108.018C105.963 107.683 106.775 106.975 107.25 106.021C107.723 105.069 107.8 103.994 107.464 102.995L107.336 102.614C107.002 101.615 106.294 100.802 105.342 100.326C104.78 100.047 104.176 99.906 103.568 99.906C103.147 99.906 102.723 99.9727 102.311 100.111M86.4057 128.055C79.1457 106.381 74.459 89.5114 72.239 81.086C58.6964 84.942 44.1284 87.9967 33.0657 89.3007C29.2884 104.611 27.2977 108.489 27.215 108.646L27.1204 108.821L26.9377 108.893C17.2137 112.742 15.4017 111.745 15.0764 111.131L15.0057 110.999L15.0164 110.847C15.5697 102.483 16.5083 94.134 17.0577 89.6034C14.4363 89.126 12.9403 88.238 12.491 86.8994C12.0457 85.57 12.6923 83.9754 14.4643 82.038C11.319 78.7754 5.58302 72.7167 0.131015 66.402L0.0336846 66.2887L0.00835912 66.1407C-0.0996409 65.4567 0.733679 63.5674 10.827 60.782L11.015 60.73L11.195 60.814C11.3563 60.89 15.251 62.774 27.395 72.6354C37.0203 67.0007 50.5204 60.6474 63.6897 55.554C60.375 47.4554 53.9364 31.1181 46.687 9.47139C45.5417 6.05005 44.9644 1.60206 47.1084 0.326058C48.971 -0.789942 52.0977 0.962052 56.375 5.53672C59.7164 9.11405 62.7177 12.3741 65.7964 15.7741L65.927 15.7287L73.2324 13.2807C75.8697 12.3967 78.7217 13.8247 79.6044 16.4567L79.7324 16.8367C80.6124 19.4687 79.187 22.3274 76.5564 23.2087L73.395 24.2674C74.691 25.734 76.047 27.274 77.4764 28.8994L81.0684 27.698C82.3337 27.2727 83.7017 27.3687 84.907 27.9714C86.115 28.5714 87.0137 29.6021 87.4404 30.8741L87.567 31.2527C87.991 32.522 87.895 33.8874 87.295 35.094C86.7777 36.1327 85.9404 36.9434 84.907 37.4221C87.2204 40.0834 89.7057 42.9607 92.4004 46.086C115.098 39.774 126.843 40.31 129.34 47.766C131.66 54.69 122.075 62.5847 100.848 71.23C100.578 75.3767 100.324 79.1887 100.082 82.7261C102.571 82.2074 105.096 83.5954 105.919 86.05L106.047 86.43C106.472 87.698 106.375 89.0634 105.774 90.27C105.174 91.478 104.143 92.3767 102.871 92.802L99.2817 94.006C99.1217 96.1634 98.9657 98.2087 98.811 100.159L101.975 99.102C103.247 98.6754 104.61 98.7714 105.815 99.374C107.023 99.9754 107.922 101.006 108.347 102.278L108.474 102.658C108.9 103.926 108.802 105.29 108.202 106.497C107.6 107.705 106.57 108.602 105.298 109.029L97.991 111.477L97.863 111.517C97.4604 116.011 97.0284 120.422 96.5084 125.362C95.851 131.59 94.4177 134.867 92.2484 135.103L92.003 135.118C89.623 135.117 87.5137 131.365 86.4057 128.055" fill="#49B2E9"/>
</svg>
