<svg width="24" height="25" viewBox="0 0 24 25" fill="none" xmlns="http://www.w3.org/2000/svg">
<path d="M12 1.68896C6.20156 1.68896 1.5 6.39053 1.5 12.189C1.5 17.9874 6.20156 22.689 12 22.689C17.7984 22.689 22.5 17.9874 22.5 12.189C22.5 6.39053 17.7984 1.68896 12 1.68896ZM17.0461 9.60381C17.0531 9.71397 17.0531 9.82881 17.0531 9.94131C17.0531 13.3819 14.4328 17.3452 9.64453 17.3452C8.16797 17.3452 6.79922 16.9163 5.64609 16.178C5.85703 16.2015 6.05859 16.2108 6.27422 16.2108C7.49297 16.2108 8.61328 15.7983 9.50625 15.0999C8.3625 15.0765 7.40156 14.3265 7.07344 13.2952C7.47422 13.3538 7.83516 13.3538 8.24766 13.2483C7.65873 13.1287 7.12939 12.8088 6.74957 12.3431C6.36974 11.8774 6.16286 11.2946 6.16406 10.6937V10.6608C6.50859 10.8554 6.91406 10.9749 7.33828 10.9913C6.98166 10.7536 6.6892 10.4316 6.48682 10.0539C6.28445 9.67611 6.17841 9.25424 6.17813 8.82568C6.17813 8.34053 6.30469 7.89756 6.53203 7.51318C7.18571 8.31788 8.0014 8.97602 8.92609 9.44482C9.85078 9.91363 10.8638 10.1826 11.8992 10.2343C11.5312 8.46475 12.8531 7.03271 14.4422 7.03271C15.1922 7.03271 15.8672 7.34678 16.343 7.85303C16.9312 7.74287 17.4937 7.52256 17.9953 7.22725C17.8008 7.82959 17.393 8.33818 16.8516 8.65928C17.3766 8.60303 17.8828 8.45772 18.3516 8.25381C17.9977 8.77412 17.5547 9.23584 17.0461 9.60381Z" fill="white"/>
</svg>
