<svg width="64" height="64" viewBox="0 0 64 64" fill="none" xmlns="http://www.w3.org/2000/svg">
<circle cx="32" cy="32" r="32" fill="#74B0CF"/>
<path d="M42 27.5504C42 28.2104 41.46 28.7504 40.8 28.7504H23.2C22.54 28.7504 22 28.2104 22 27.5504V27.5404C22 25.2504 23.85 23.4004 26.14 23.4004H37.85C40.14 23.4004 42 25.2604 42 27.5504Z" fill="white"/>
<path d="M22 31.45V36.46C22 38.75 23.85 40.6 26.14 40.6H37.85C40.14 40.6 42 38.74 42 36.45V31.45C42 30.79 41.46 30.25 40.8 30.25H23.2C22.54 30.25 22 30.79 22 31.45ZM28 37.25H26C25.59 37.25 25.25 36.91 25.25 36.5C25.25 36.09 25.59 35.75 26 35.75H28C28.41 35.75 28.75 36.09 28.75 36.5C28.75 36.91 28.41 37.25 28 37.25ZM34.5 37.25H30.5C30.09 37.25 29.75 36.91 29.75 36.5C29.75 36.09 30.09 35.75 30.5 35.75H34.5C34.91 35.75 35.25 36.09 35.25 36.5C35.25 36.91 34.91 37.25 34.5 37.25Z" fill="white"/>
</svg>
