<svg width="64" height="64" viewBox="0 0 64 64" fill="none" xmlns="http://www.w3.org/2000/svg">
<path d="M64 32C64 49.6731 49.6731 64 32 64C14.3269 64 0 49.6731 0 32C0 14.3269 14.3269 0 32 0C49.6731 0 64 14.3269 64 32Z" fill="#74B0CF"/>
<path d="M27.65 40.9098C27.62 40.9098 27.58 40.9298 27.55 40.9298C25.61 39.9698 24.03 38.3798 23.06 36.4398C23.06 36.4098 23.08 36.3698 23.08 36.3398C24.3 36.6998 25.56 36.9698 26.81 37.1798C27.03 38.4398 27.29 39.6898 27.65 40.9098Z" fill="white"/>
<path d="M40.94 36.4498C39.95 38.4398 38.3 40.0498 36.29 41.0198C36.67 39.7498 36.99 38.4698 37.2 37.1798C38.46 36.9698 39.7 36.6998 40.92 36.3398C40.91 36.3798 40.94 36.4198 40.94 36.4498Z" fill="white"/>
<path d="M41.02 27.7105C39.76 27.3305 38.49 27.0205 37.2 26.8005C36.99 25.5105 36.68 24.2305 36.29 22.9805C38.36 23.9705 40.03 25.6405 41.02 27.7105Z" fill="white"/>
<path d="M27.65 23.0896C27.29 24.3096 27.03 25.5496 26.82 26.8096C25.53 27.0096 24.25 27.3296 22.98 27.7096C23.95 25.6996 25.56 24.0496 27.55 23.0596C27.58 23.0596 27.62 23.0896 27.65 23.0896Z" fill="white"/>
<path d="M35.49 26.59C33.17 26.33 30.83 26.33 28.51 26.59C28.76 25.22 29.08 23.85 29.53 22.53C29.55 22.45 29.54 22.39 29.55 22.31C30.34 22.12 31.15 22 32 22C32.84 22 33.66 22.12 34.44 22.31C34.45 22.39 34.45 22.45 34.47 22.53C34.92 23.86 35.24 25.22 35.49 26.59Z" fill="white"/>
<path d="M26.59 35.4898C25.21 35.2398 23.85 34.9198 22.53 34.4698C22.45 34.4498 22.39 34.4598 22.31 34.4498C22.12 33.6598 22 32.8498 22 31.9998C22 31.1598 22.12 30.3398 22.31 29.5598C22.39 29.5498 22.45 29.5498 22.53 29.5298C23.86 29.0898 25.21 28.7598 26.59 28.5098C26.34 30.8298 26.34 33.1698 26.59 35.4898Z" fill="white"/>
<path d="M42 31.9998C42 32.8498 41.88 33.6598 41.69 34.4498C41.61 34.4598 41.55 34.4498 41.47 34.4698C40.14 34.9098 38.78 35.2398 37.41 35.4898C37.67 33.1698 37.67 30.8298 37.41 28.5098C38.78 28.7598 40.15 29.0798 41.47 29.5298C41.55 29.5498 41.61 29.5598 41.69 29.5598C41.88 30.3498 42 31.1598 42 31.9998Z" fill="white"/>
<path d="M35.49 37.4102C35.24 38.7902 34.92 40.1502 34.47 41.4702C34.45 41.5502 34.45 41.6102 34.44 41.6902C33.66 41.8802 32.84 42.0002 32 42.0002C31.15 42.0002 30.34 41.8802 29.55 41.6902C29.54 41.6102 29.55 41.5502 29.53 41.4702C29.09 40.1402 28.76 38.7902 28.51 37.4102C29.67 37.5402 30.83 37.6302 32 37.6302C33.17 37.6302 34.34 37.5402 35.49 37.4102Z" fill="white"/>
<path d="M35.7633 35.7633C33.2622 36.0789 30.7378 36.0789 28.2367 35.7633C27.9211 33.2622 27.9211 30.7378 28.2367 28.2367C30.7378 27.9211 33.2622 27.9211 35.7633 28.2367C36.0789 30.7378 36.0789 33.2622 35.7633 35.7633Z" fill="white"/>
</svg>
