<svg width="40" height="40" viewBox="0 0 40 40" fill="none" xmlns="http://www.w3.org/2000/svg">
<circle cx="20" cy="20" r="20" fill="#760A58" fill-opacity="0.25"/>
<path d="M27.79 12.2203C24.83 9.27031 20.03 9.27031 17.09 12.2203C15.02 14.2703 14.4 17.2203 15.2 19.8203L10.5 24.5203C10.17 24.8603 9.94002 25.5303 10.01 26.0103L10.31 28.1903C10.42 28.9103 11.09 29.5903 11.81 29.6903L13.99 29.9903C14.47 30.0603 15.14 29.8403 15.48 29.4903L16.3 28.6703C16.5 28.4803 16.5 28.1603 16.3 27.9603L14.36 26.0203C14.07 25.7303 14.07 25.2503 14.36 24.9603C14.65 24.6703 15.13 24.6703 15.42 24.9603L17.37 26.9103C17.56 27.1003 17.88 27.1003 18.07 26.9103L20.19 24.8003C22.78 25.6103 25.73 24.9803 27.79 22.9303C30.74 19.9803 30.74 15.1703 27.79 12.2203ZM22.5 20.0003C21.12 20.0003 20 18.8803 20 17.5003C20 16.1203 21.12 15.0003 22.5 15.0003C23.88 15.0003 25 16.1203 25 17.5003C25 18.8803 23.88 20.0003 22.5 20.0003Z" fill="#760A58"/>
</svg>
