<svg width="40" height="40" viewBox="0 0 40 40" fill="none" xmlns="http://www.w3.org/2000/svg">
<circle cx="20" cy="20" r="20" fill="#093F68" fill-opacity="0.25"/>
<path d="M20 25.3498C20.9002 25.3498 21.63 24.6201 21.63 23.7198C21.63 22.8196 20.9002 22.0898 20 22.0898C19.0998 22.0898 18.37 22.8196 18.37 23.7198C18.37 24.6201 19.0998 25.3498 20 25.3498Z" fill="#093F68"/>
<path d="M26.28 17.53V16.28C26.28 13.58 25.63 10 20 10C14.37 10 13.72 13.58 13.72 16.28V17.53C10.92 17.88 10 19.3 10 22.79V24.65C10 28.75 11.25 30 15.35 30H24.65C28.75 30 30 28.75 30 24.65V22.79C30 19.3 29.08 17.88 26.28 17.53ZM20 26.74C18.33 26.74 16.98 25.38 16.98 23.72C16.98 22.05 18.34 20.7 20 20.7C21.66 20.7 23.02 22.06 23.02 23.72C23.02 25.39 21.67 26.74 20 26.74ZM15.35 17.44C15.27 17.44 15.2 17.44 15.12 17.44V16.28C15.12 13.35 15.95 11.4 20 11.4C24.05 11.4 24.88 13.35 24.88 16.28V17.45C24.8 17.45 24.73 17.45 24.65 17.45H15.35V17.44Z" fill="#093F68"/>
</svg>
