<svg width="24" height="25" viewBox="0 0 24 25" fill="none" xmlns="http://www.w3.org/2000/svg">
<path d="M3.5 8.76898C3.31982 8.9215 3.15252 9.089 3 9.26958V8.3398C3 7.35677 3.6022 6.48367 4.51672 6.13753C4.5168 6.1375 4.51687 6.13748 4.51695 6.13745L12.4536 3.13872C12.619 3.07894 12.7902 3.0498 12.95 3.0498C13.6894 3.0498 14.35 3.65122 14.35 4.4498V7.7498H13.85V4.4498C13.85 4.14947 13.7103 3.91371 13.5289 3.76346C13.3613 3.62466 13.1491 3.5498 12.95 3.5498C12.8337 3.5498 12.7227 3.57295 12.6198 3.6134L4.6936 6.60196L4.69347 6.602C3.96479 6.87698 3.5 7.5661 3.5 8.3398V8.76898Z" fill="#A40235" stroke="#A40235"/>
<path d="M18.9982 15.5517L18.9983 15.5516L18.9974 15.5418C18.9828 15.3916 19.0408 15.246 19.1432 15.1436L19.1434 15.1437L19.1527 15.1339C19.2301 15.0522 19.3447 15 19.4897 15H20.9873C20.9935 15.0006 20.9975 15.0017 20.9997 15.0025V15.9993C20.9988 15.9995 20.9976 15.9998 20.9959 16H19.5497C19.2413 16 19.0153 15.7734 18.9982 15.5517Z" fill="#A40235" stroke="#A40235"/>
<path d="M4.2993 9.41053L4.29931 9.41055L4.30302 9.40772C4.84824 8.99231 5.52234 8.75 6.26 8.75H17.74C19.5339 8.75 21 10.2161 21 12.01V12.45C21 12.7239 20.7739 12.95 20.5 12.95H19.48C18.7881 12.95 18.1503 13.2222 17.6859 13.697C17.0708 14.3025 16.7564 15.2138 17.0176 16.1615C17.3373 17.3472 18.4868 18.05 19.63 18.05H20.5C20.7739 18.05 21 18.2761 21 18.55V18.74C21 20.5339 19.5339 22 17.74 22H6.26C4.46614 22 3 20.5339 3 18.74V12.01C3 10.9435 3.51087 9.99968 4.2993 9.41053ZM7 13.75H14C14.6861 13.75 15.25 13.1861 15.25 12.5C15.25 11.8139 14.6861 11.25 14 11.25H7C6.31386 11.25 5.75 11.8139 5.75 12.5C5.75 13.1861 6.31386 13.75 7 13.75Z" fill="#A40235" stroke="#A40235"/>
</svg>
