<svg width="24" height="24" viewBox="0 0 24 24" fill="none" xmlns="http://www.w3.org/2000/svg">
<path d="M2.80626 10.8955L2.80627 10.8955L2.80433 10.893C2.25727 10.1897 1.9988 9.27828 2.08738 8.32765C2.08741 8.32728 2.08745 8.3269 2.08748 8.32653L2.35622 5.58947C2.56438 4.12252 2.98401 3.19141 3.61886 2.61702C4.25087 2.0452 5.1819 1.75 6.58965 1.75H8.98965H10.4697H13.5097H14.9896H17.3497C18.7521 1.75 19.684 2.04507 20.3165 2.61418C20.9512 3.18536 21.3703 4.10945 21.5733 5.56058L21.8619 8.31786C21.862 8.3185 21.8621 8.31914 21.8621 8.31978C21.9504 9.24268 21.71 10.1262 21.1896 10.82L21.1896 10.8199L21.1841 10.8275C20.5337 11.7295 19.4888 12.25 18.3096 12.25C17.2324 12.25 16.1849 11.7181 15.5043 10.843L15.0855 10.3046L14.6981 10.866C14.1035 11.7278 13.1289 12.25 11.9997 12.25C10.8742 12.25 9.87047 11.7012 9.28441 10.8308L8.89228 10.2483L8.47013 10.8094C7.80017 11.6997 6.73535 12.25 5.63965 12.25C4.48687 12.25 3.46675 11.7559 2.80626 10.8955Z" fill="#371857" stroke="#371857"/>
<path d="M11.401 17.1576L11.402 17.1575C12.4845 17.0446 13.2127 17.233 13.6625 17.5957C14.1002 17.9486 14.3747 18.5488 14.3701 19.4979H14.3701V19.5002V21.8802H9.62012V19.1502C9.62012 18.122 10.3907 17.2611 11.401 17.1576Z" fill="#371857" stroke="#371857"/>
<path d="M3.80309 13.9514L3.80307 13.9515L3.81177 13.9544C4.10101 14.0508 4.39891 14.1289 4.71327 14.1742C4.82253 14.1924 4.97375 14.2166 5.12673 14.2197C5.29755 14.2399 5.46864 14.2501 5.63988 14.2501C6.7854 14.2501 7.90594 13.8715 8.83378 13.2136C9.73295 13.8736 10.8402 14.2501 11.9999 14.2501C13.1656 14.2501 14.2591 13.8911 15.1578 13.2321C16.0807 13.8795 17.1823 14.2501 18.3099 14.2501C18.5049 14.2501 18.7014 14.2394 18.8896 14.2177C19.0029 14.2082 19.1276 14.197 19.2564 14.1743C19.607 14.1277 19.9198 14.0271 20.1878 13.9409L20.2029 13.9361L20.2029 13.9361L20.2102 13.9337C20.5386 13.8225 20.8699 14.0651 20.8699 14.4001V17.3801C20.8699 19.8606 18.8591 21.8747 16.3799 21.8801V19.5001C16.3799 18.1168 15.9553 16.9665 15.0649 16.1689C14.2798 15.455 13.2382 15.1301 12.0199 15.1301C11.7566 15.1301 11.4885 15.1406 11.1971 15.1729C9.16081 15.38 7.61988 17.0964 7.61988 19.1501V21.8801C5.14062 21.8747 3.12988 19.8606 3.12988 17.3801V14.4201C3.12988 14.0747 3.46944 13.8334 3.80309 13.9514Z" fill="#371857" stroke="#371857"/>
</svg>
