<svg width="24" height="24" viewBox="0 0 24 24" fill="none" xmlns="http://www.w3.org/2000/svg">
<path d="M17.5019 4.21455L17.5017 4.21439L15.7717 3.22439L15.7643 3.22019L15.7644 3.22013C15.222 2.89746 14.5063 3.08318 14.1711 3.64375L14.0638 3.82909C14.0636 3.82945 14.0634 3.8298 14.0632 3.83016C13.5599 4.70757 12.8257 5.25792 11.9888 5.25792C11.1522 5.25792 10.4157 4.70803 9.90741 3.83116L9.90729 3.83094L9.79729 3.64094L9.79553 3.63791L9.79554 3.6379C9.48218 3.08778 8.77192 2.89513 8.22565 3.22013L8.21837 3.22445L8.21834 3.22439L6.48834 4.21439L6.48807 4.21455C5.82207 4.59512 5.58942 5.45695 5.97313 6.13062C6.48124 7.00283 6.59087 7.91208 6.17295 8.63553C5.75511 9.35885 4.91145 9.72043 3.9 9.72043C3.13443 9.72043 2.5 10.3483 2.5 11.1204V12.8804C2.5 13.646 3.12785 14.2804 3.9 14.2804C4.91153 14.2804 5.75545 14.6421 6.17321 15.367C6.59079 16.0916 6.48109 17.003 5.97345 17.8797C5.58991 18.5523 5.8208 19.405 6.48807 19.7863L6.48834 19.7865L8.21834 20.7765L8.22568 20.7807L8.22565 20.7807C8.76799 21.1034 9.48371 20.9177 9.81889 20.3571L9.92622 20.1718C9.92639 20.1715 9.92657 20.1712 9.92674 20.1708C10.4301 19.2933 11.1642 18.7429 12.0012 18.7429C12.8378 18.7429 13.5743 19.2928 14.0826 20.1697L14.0827 20.1699L14.1911 20.3571C14.5263 20.9177 15.242 21.1034 15.7844 20.7807L15.7916 20.7764L15.7917 20.7765L17.5217 19.7865L17.5219 19.7863C18.1902 19.4044 18.4191 18.5418 18.0371 17.8806L17.5019 4.21455ZM17.5019 4.21455C18.1696 4.59606 18.4004 5.44952 18.0159 6.12236M17.5019 4.21455L18.0159 6.12236M18.0159 6.12236C17.5131 6.9997 17.4072 7.91094 17.826 8.63461M18.0159 6.12236L17.826 8.63461M17.826 8.63461C18.245 9.35862 19.0881 9.72043 20.1 9.72043M17.826 8.63461L20.1 9.72043M20.1 9.72043C20.8705 9.72043 21.5014 10.3538 21.51 11.123L20.1 9.72043ZM8.25 12.0004C8.25 14.0666 9.93386 15.7504 12 15.7504C14.0661 15.7504 15.75 14.0666 15.75 12.0004C15.75 9.93428 14.0661 8.25042 12 8.25042C9.93386 8.25042 8.25 9.93428 8.25 12.0004Z" fill="#EB3F75" stroke="#EB3F75"/>
</svg>
