<svg width="24" height="25" viewBox="0 0 24 25" fill="none" xmlns="http://www.w3.org/2000/svg">
<path d="M8 3H16C17.6547 3 18.7543 3.47026 19.4461 4.21523C20.1441 4.9669 20.5 6.07665 20.5 7.5V17.5C20.5 18.9234 20.1441 20.0331 19.4461 20.7848C18.7543 21.5297 17.6547 22 16 22H8C6.3453 22 5.24565 21.5297 4.5539 20.7848C3.85591 20.0331 3.5 18.9234 3.5 17.5V7.5C3.5 6.07665 3.85591 4.9669 4.5539 4.21523C5.24565 3.47026 6.3453 3 8 3ZM12 12.25H8C7.31386 12.25 6.75 12.8139 6.75 13.5C6.75 14.1861 7.31386 14.75 8 14.75H12C12.6861 14.75 13.25 14.1861 13.25 13.5C13.25 12.8139 12.6861 12.25 12 12.25ZM8 18.75H16C16.6861 18.75 17.25 18.1861 17.25 17.5C17.25 16.8139 16.6861 16.25 16 16.25H8C7.31386 16.25 6.75 16.8139 6.75 17.5C6.75 18.1861 7.31386 18.75 8 18.75ZM16.5 10.25H18.5C19.1861 10.25 19.75 9.68614 19.75 9C19.75 8.31386 19.1861 7.75 18.5 7.75H16.5C16.0861 7.75 15.75 7.41386 15.75 7V5C15.75 4.31386 15.1861 3.75 14.5 3.75C13.8139 3.75 13.25 4.31386 13.25 5V7C13.25 8.79614 14.7039 10.25 16.5 10.25Z" fill="#124A4A" stroke="#124A4A"/>
</svg>
