<svg width="24" height="24" viewBox="0 0 24 24" fill="none" xmlns="http://www.w3.org/2000/svg">
<path d="M5.78 7.0498H15.22C16.7337 7.0498 17.4825 7.24979 17.8913 7.6532C18.2978 8.05433 18.5 8.78778 18.5 10.2798V10.8598C18.5 11.1337 18.2739 11.3598 18 11.3598H3C2.72614 11.3598 2.5 11.1337 2.5 10.8598V10.2798C2.5 8.93332 2.66578 8.20097 3.0031 7.77538C3.31799 7.37808 3.8776 7.13749 5.0252 7.06919C5.26331 7.05928 5.5129 7.0498 5.78 7.0498Z" fill="#004E62" stroke="#004E62"/>
<path d="M2.5 14.3604C2.5 14.0865 2.72614 13.8604 3 13.8604H18C18.2739 13.8604 18.5 14.0865 18.5 14.3604V17.4278C18.4848 18.847 18.274 19.5398 17.8699 19.9199C17.4569 20.3085 16.7083 20.5004 15.22 20.5004H5.78C4.26627 20.5004 3.51751 20.3004 3.10869 19.897C2.70219 19.4958 2.5 18.7624 2.5 17.2704V14.3604ZM5.25 19.0604H6.96C7.41623 19.0604 7.81869 18.817 8.03988 18.4533C8.25961 18.816 8.65831 19.0604 9.11 19.0604H12.55C13.2505 19.0604 13.8 18.4921 13.8 17.8104C13.8 17.1242 13.2361 16.5604 12.55 16.5604H9.11C8.65839 16.5604 8.25975 16.8046 8.04 17.1673C7.82025 16.8046 7.42161 16.5604 6.97 16.5604H5.25C4.56386 16.5604 4 17.1242 4 17.8104C4 18.4965 4.56386 19.0604 5.25 19.0604Z" fill="#004E62" stroke="#004E62"/>
<path d="M6.70969 4.4098L6.70972 4.40988L6.71859 4.40648C7.25001 4.20277 7.8672 4.09961 8.57962 4.09961H17.5096C18.7821 4.09961 19.7643 4.42008 20.4263 5.03672C21.0819 5.6474 21.4996 6.61998 21.4996 8.08961V13.3296C21.4996 14.3364 21.303 15.1068 20.9696 15.6876V9.20961C20.9696 6.68347 18.9258 4.63961 16.3996 4.63961H6.20763C6.36356 4.55107 6.5314 4.47428 6.70969 4.4098Z" fill="#004E62" stroke="#004E62"/>
</svg>
