<svg width="24" height="24" viewBox="0 0 24 24" fill="none" xmlns="http://www.w3.org/2000/svg">
<path d="M16.02 5.56953V6.06953H16.52H16.76C18.7613 6.06953 20.0079 6.52836 20.7191 7.3148C21.5053 8.18467 21.5499 9.36586 21.4727 10.3561C21.4674 10.3963 21.4644 10.4308 21.4624 10.4544L21.4619 10.46C21.4594 10.489 21.4583 10.4988 21.4568 10.5073L21.4544 10.5219L21.4528 10.5366L21.4031 11.0043L21.4028 11.0066L21.3874 11.1454C21.0214 11.4093 20.6276 11.6731 20.254 11.8842L20.2539 11.8841L20.2428 11.8908C20.2242 11.902 20.2076 11.9124 20.1944 11.9209L20.1618 11.9418C20.1453 11.9522 20.1358 11.9576 20.1264 11.9623L20.1119 11.9696L20.0978 11.9778C18.3706 12.9869 16.459 13.6758 14.4802 13.9959L14.0898 14.0591L14.0613 14.4535C14.03 14.8878 13.9227 15.261 13.6548 15.5314C13.3917 15.797 12.8873 16.0495 11.87 16.0495C10.8546 16.0495 10.3547 15.7954 10.0933 15.5308C9.82548 15.2594 9.71858 14.8882 9.67776 14.4619L9.64099 14.0778L9.26014 14.016C7.40385 13.7147 5.57857 13.1026 3.9209 12.1914L3.92092 12.1913L3.91533 12.1884C3.76204 12.1066 3.63035 12.036 3.51042 11.9589L3.4969 11.9503L3.48286 11.9425C3.26183 11.8197 2.87811 11.5728 2.63509 11.4138L2.55779 10.6021L2.55667 10.5904L2.55501 10.5788L2.54656 10.5196C2.44847 9.51988 2.45066 8.24781 3.28126 7.32449C3.99269 6.53803 5.22952 6.07953 7.24004 6.07953H7.48004H7.98004V5.57953V5.52953C7.98004 4.65991 7.99427 3.87921 8.37065 3.29362C8.71067 2.7646 9.44542 2.26953 11.24 2.26953H12.76C14.5556 2.26953 15.29 2.76263 15.6296 3.2902C16.0057 3.87431 16.02 4.65451 16.02 5.52953V5.56953ZM10.63 12.0795H10.13V12.5795V13.8395L10.13 13.863C10.13 14.0983 10.13 14.3269 10.1528 14.5181C10.1766 14.7183 10.2329 14.9575 10.4082 15.157C10.5874 15.3611 10.8256 15.4502 11.0532 15.4947C11.2767 15.5383 11.5484 15.5495 11.86 15.5495C12.1692 15.5495 12.4395 15.5402 12.6609 15.4998C12.8856 15.4588 13.1271 15.3744 13.3095 15.1697C13.488 14.9695 13.5438 14.727 13.5674 14.5255C13.5901 14.3321 13.5901 14.0983 13.59 13.8535L13.59 13.8295V12.5795V12.0795H13.09H10.63ZM15.09 6.07953H15.59V5.57953V5.52953V5.50617C15.5901 5.10255 15.5901 4.71994 15.5499 4.3918C15.5085 4.05316 15.4184 3.71058 15.1922 3.42216C14.9599 3.12614 14.6325 2.9474 14.2346 2.84247C13.8452 2.73979 13.3581 2.69953 12.76 2.69953H11.24C10.6424 2.69953 10.1556 2.73912 9.76659 2.84078C9.36912 2.94464 9.04116 3.12208 8.8084 3.41777C8.58161 3.70589 8.49153 4.04865 8.45013 4.38767C8.41001 4.71623 8.41002 5.10005 8.41004 5.50604L8.41004 5.52953V5.56953V5.57953V6.07953H8.91004H15.09Z" fill="#E9B500" stroke="#E9B500"/>
<path d="M21.0882 14.1854C21.091 14.1841 21.0921 14.184 21.0917 14.184L21.0914 14.184L21.0913 14.184C21.0912 14.184 21.0912 14.184 21.0912 14.184C21.0916 14.1841 21.0943 14.1846 21.0978 14.187C21.0993 14.188 21.1003 14.189 21.1009 14.1896C21.1009 14.1899 21.1009 14.1903 21.1008 14.1907L20.7422 18.1409C20.6411 19.1006 20.4015 19.965 19.7475 20.6013C19.0957 21.2353 17.9407 21.7297 15.8098 21.7297H8.18984C6.05899 21.7297 4.90379 21.2354 4.25194 20.6023C3.59794 19.9671 3.35853 19.1051 3.25746 18.1508L2.91708 14.4066C2.91704 14.4062 2.91702 14.4058 2.917 14.4055C2.91758 14.4049 2.91848 14.404 2.91983 14.4031C2.92255 14.4012 2.92472 14.4006 2.92548 14.4004C2.92598 14.4005 2.92699 14.4008 2.92858 14.4016C4.06031 14.9136 6.20244 15.8472 7.54973 16.2001C7.55917 16.2025 7.57859 16.2127 7.59262 16.2427C8.30869 17.7741 9.84748 18.5197 11.8698 18.5197C13.88 18.5197 15.4309 17.7429 16.1468 16.213C16.1609 16.1831 16.1805 16.1725 16.1907 16.1698C17.6237 15.7928 19.9054 14.7482 21.0882 14.1854ZM2.92511 14.4003C2.9251 14.4003 2.92513 14.4003 2.92518 14.4003L2.92517 14.4003C2.92513 14.4003 2.92511 14.4003 2.92511 14.4003Z" fill="#E9B500" stroke="#E9B500"/>
</svg>
