<svg width="64" height="64" viewBox="0 0 64 64" fill="none" xmlns="http://www.w3.org/2000/svg">
<circle cx="32" cy="32" r="32" fill="#B20A0A" fill-opacity="0.25"/>
<path d="M41.56 30.7396L40.2 29.1596C39.94 28.8596 39.73 28.2996 39.73 27.8996V26.1996C39.73 25.1396 38.86 24.2696 37.8 24.2696H36.1C35.71 24.2696 35.14 24.0596 34.84 23.7996L33.26 22.4396C32.57 21.8496 31.44 21.8496 30.74 22.4396L29.17 23.8096C28.87 24.0596 28.3 24.2696 27.91 24.2696H26.18C25.12 24.2696 24.25 25.1396 24.25 26.1996V27.9096C24.25 28.2996 24.04 28.8596 23.79 29.1596L22.44 30.7496C21.86 31.4396 21.86 32.5596 22.44 33.2496L23.79 34.8396C24.04 35.1396 24.25 35.6996 24.25 36.0896V37.7996C24.25 38.8596 25.12 39.7296 26.18 39.7296H27.91C28.3 39.7296 28.87 39.9396 29.17 40.1996L30.75 41.5596C31.44 42.1496 32.57 42.1496 33.27 41.5596L34.85 40.1996C35.15 39.9396 35.71 39.7296 36.11 39.7296H37.81C38.87 39.7296 39.74 38.8596 39.74 37.7996V36.0996C39.74 35.7096 39.95 35.1396 40.21 34.8396L41.57 33.2596C42.15 32.5696 42.15 31.4296 41.56 30.7396ZM36.16 30.1096L31.33 34.9396C31.19 35.0796 31 35.1596 30.8 35.1596C30.6 35.1596 30.41 35.0796 30.27 34.9396L27.85 32.5196C27.56 32.2296 27.56 31.7496 27.85 31.4596C28.14 31.1696 28.62 31.1696 28.91 31.4596L30.8 33.3496L35.1 29.0496C35.39 28.7596 35.87 28.7596 36.16 29.0496C36.45 29.3396 36.45 29.8196 36.16 30.1096Z" fill="#B30A0A"/>
</svg>
