<svg width="64" height="64" viewBox="0 0 64 64" fill="none" xmlns="http://www.w3.org/2000/svg">
<circle cx="32" cy="32" r="32" fill="#1B9B28" fill-opacity="0.25"/>
<path d="M39.37 24.8901L33.51 22.2801C32.65 21.9001 31.35 21.9001 30.49 22.2801L24.63 24.8901C23.15 25.5501 22.93 26.4501 22.93 26.9301C22.93 27.4101 23.15 28.3101 24.63 28.9701L30.49 31.5801C30.92 31.7701 31.46 31.8701 32 31.8701C32.54 31.8701 33.08 31.7701 33.51 31.5801L39.37 28.9701C40.85 28.3101 41.07 27.4101 41.07 26.9301C41.07 26.4501 40.86 25.5501 39.37 24.8901Z" fill="#1B9B28"/>
<path d="M32 37.04C31.62 37.04 31.24 36.96 30.89 36.81L24.15 33.81C23.12 33.35 22.32 32.12 22.32 30.99C22.32 30.58 22.65 30.25 23.06 30.25C23.47 30.25 23.8 30.58 23.8 30.99C23.8 31.53 24.25 32.23 24.75 32.45L31.49 35.45C31.81 35.59 32.18 35.59 32.5 35.45L39.24 32.45C39.74 32.23 40.19 31.54 40.19 30.99C40.19 30.58 40.52 30.25 40.93 30.25C41.34 30.25 41.67 30.58 41.67 30.99C41.67 32.11 40.87 33.35 39.84 33.81L33.1 36.81C32.76 36.96 32.38 37.04 32 37.04Z" fill="#1B9B28"/>
<path d="M32 42C31.62 42 31.24 41.92 30.89 41.77L24.15 38.77C23.04 38.28 22.32 37.17 22.32 35.95C22.32 35.54 22.65 35.21 23.06 35.21C23.47 35.21 23.8 35.54 23.8 35.95C23.8 36.58 24.17 37.15 24.75 37.41L31.49 40.41C31.81 40.55 32.18 40.55 32.5 40.41L39.24 37.41C39.81 37.16 40.19 36.58 40.19 35.95C40.19 35.54 40.52 35.21 40.93 35.21C41.34 35.21 41.67 35.54 41.67 35.95C41.67 37.17 40.95 38.27 39.84 38.77L33.1 41.77C32.76 41.92 32.38 42 32 42Z" fill="#1B9B28"/>
</svg>
