<svg width="64" height="64" viewBox="0 0 64 64" fill="none" xmlns="http://www.w3.org/2000/svg">
<circle cx="32" cy="32" r="32" fill="#49B2E9" fill-opacity="0.25"/>
<path d="M40.36 32.7296C39.99 32.7296 39.68 32.4496 39.64 32.0796C39.4 29.8796 38.22 27.8996 36.4 26.6396C36.07 26.4096 35.99 25.9596 36.22 25.6296C36.45 25.2996 36.9 25.2196 37.23 25.4496C39.4 26.9596 40.8 29.3196 41.09 31.9296C41.13 32.3296 40.84 32.6896 40.44 32.7296C40.41 32.7296 40.39 32.7296 40.36 32.7296Z" fill="#49B2E9"/>
<path d="M23.74 32.7802C23.72 32.7802 23.69 32.7802 23.67 32.7802C23.27 32.7402 22.98 32.3802 23.02 31.9802C23.29 29.3702 24.67 27.0102 26.82 25.4902C27.14 25.2602 27.6 25.3402 27.83 25.6602C28.06 25.9902 27.98 26.4402 27.66 26.6702C25.86 27.9502 24.69 29.9302 24.47 32.1202C24.43 32.5002 24.11 32.7802 23.74 32.7802Z" fill="#49B2E9"/>
<path d="M35.99 41.1003C34.76 41.6903 33.44 41.9903 32.06 41.9903C30.62 41.9903 29.25 41.6703 27.97 41.0203C27.61 40.8503 27.47 40.4103 27.65 40.0503C27.82 39.6903 28.26 39.5503 28.62 39.7203C29.25 40.0403 29.92 40.2603 30.6 40.3903C31.52 40.5703 32.46 40.5803 33.38 40.4203C34.06 40.3003 34.73 40.0903 35.35 39.7903C35.72 39.6203 36.16 39.7603 36.32 40.1303C36.5 40.4903 36.36 40.9303 35.99 41.1003Z" fill="#49B2E9"/>
<path d="M32.05 22.0098C30.5 22.0098 29.23 23.2698 29.23 24.8298C29.23 26.3898 30.49 27.6498 32.05 27.6498C33.61 27.6498 34.87 26.3898 34.87 24.8298C34.87 23.2698 33.61 22.0098 32.05 22.0098Z" fill="#49B2E9"/>
<path d="M25.05 33.8701C23.5 33.8701 22.23 35.1301 22.23 36.6901C22.23 38.2501 23.49 39.5101 25.05 39.5101C26.61 39.5101 27.87 38.2501 27.87 36.6901C27.87 35.1301 26.6 33.8701 25.05 33.8701Z" fill="#49B2E9"/>
<path d="M38.95 33.8701C37.4 33.8701 36.13 35.1301 36.13 36.6901C36.13 38.2501 37.39 39.5101 38.95 39.5101C40.51 39.5101 41.77 38.2501 41.77 36.6901C41.77 35.1301 40.51 33.8701 38.95 33.8701Z" fill="#49B2E9"/>
</svg>
