<svg width="64" height="64" viewBox="0 0 64 64" fill="none" xmlns="http://www.w3.org/2000/svg">
<circle cx="32" cy="32" r="32" fill="#371857" fill-opacity="0.25"/>
<path d="M37.53 27.77C37.46 27.76 37.39 27.76 37.32 27.77C35.77 27.72 34.54 26.45 34.54 24.89C34.54 23.3 35.83 22 37.43 22C39.02 22 40.32 23.29 40.32 24.89C40.31 26.45 39.08 27.72 37.53 27.77Z" fill="#371857"/>
<path d="M40.79 34.7004C39.67 35.4504 38.1 35.7304 36.65 35.5404C37.03 34.7204 37.23 33.8104 37.24 32.8504C37.24 31.8504 37.02 30.9004 36.6 30.0704C38.08 29.8704 39.65 30.1504 40.78 30.9004C42.36 31.9404 42.36 33.6504 40.79 34.7004Z" fill="#371857"/>
<path d="M26.44 27.77C26.51 27.76 26.58 27.76 26.65 27.77C28.2 27.72 29.43 26.45 29.43 24.89C29.43 23.29 28.14 22 26.54 22C24.95 22 23.66 23.29 23.66 24.89C23.66 26.45 24.89 27.72 26.44 27.77Z" fill="#371857"/>
<path d="M26.55 32.8496C26.55 33.8196 26.76 34.7396 27.14 35.5696C25.73 35.7196 24.26 35.4196 23.18 34.7096C21.6 33.6596 21.6 31.9496 23.18 30.8996C24.25 30.1796 25.76 29.8896 27.18 30.0496C26.77 30.8896 26.55 31.8396 26.55 32.8496Z" fill="#371857"/>
<path d="M32.12 35.87C32.04 35.86 31.95 35.86 31.86 35.87C30.02 35.81 28.55 34.3 28.55 32.44C28.56 30.54 30.09 29 32 29C33.9 29 35.44 30.54 35.44 32.44C35.43 34.3 33.97 35.81 32.12 35.87Z" fill="#371857"/>
<path d="M28.87 37.9396C27.36 38.9496 27.36 40.6096 28.87 41.6096C30.59 42.7596 33.41 42.7596 35.13 41.6096C36.64 40.5996 36.64 38.9396 35.13 37.9396C33.42 36.7896 30.6 36.7896 28.87 37.9396Z" fill="#371857"/>
</svg>
