<svg width="32" height="32" viewBox="0 0 32 32" fill="none" xmlns="http://www.w3.org/2000/svg">
<path d="M3.16642 16.2667H3.16651L3.16634 16.2575C3.10212 12.7768 4.39835 9.49341 6.80995 7.03028C9.22152 4.58051 12.4525 3.2334 15.9331 3.2334C23.0436 3.2334 28.8331 9.02287 28.8331 16.1334V23.7334C28.8331 24.0039 28.6036 24.2334 28.3331 24.2334C28.0626 24.2334 27.8331 24.0039 27.8331 23.7334V16.1334C27.8331 9.57764 22.5029 4.2334 15.9331 4.2334C12.7214 4.2334 9.73868 5.47226 7.52292 7.72983C5.29434 10.0002 4.11198 13.0221 4.16642 16.2443V23.8534C4.16642 24.1459 3.94167 24.3667 3.66642 24.3667C3.3959 24.3667 3.16642 24.1373 3.16642 23.8667V16.2667Z" fill="#009EC5" stroke="#009EC5"/>
<path d="M7.91984 16.5996H7.7465C4.9465 16.5996 2.6665 18.8796 2.6665 21.6796V24.1863C2.6665 26.9863 4.9465 29.2663 7.7465 29.2663H7.91984C10.7198 29.2663 12.9998 26.9863 12.9998 24.1863V21.6796C12.9998 18.8796 10.7198 16.5996 7.91984 16.5996Z" fill="#009EC5"/>
<path d="M24.2533 16.5996H24.08C21.28 16.5996 19 18.8796 19 21.6796V24.1863C19 26.9863 21.28 29.2663 24.08 29.2663H24.2533C27.0533 29.2663 29.3333 26.9863 29.3333 24.1863V21.6796C29.3333 18.8796 27.0533 16.5996 24.2533 16.5996Z" fill="#009EC5"/>
</svg>
