<svg width="32" height="32" viewBox="0 0 32 32" fill="none" xmlns="http://www.w3.org/2000/svg">
<path d="M28.8203 10.4123V10.4137V21.587C28.8203 23.9142 28.1286 25.7116 26.9134 26.9268C25.6983 28.1419 23.9009 28.8337 21.5737 28.8337H10.4137C8.08644 28.8337 6.28916 28.1419 5.0741 26.9253C3.85897 25.7087 3.16699 23.9079 3.16699 21.5737V10.4137C3.16699 8.08643 3.85875 6.289 5.07388 5.07388C6.289 3.85875 8.08643 3.16699 10.4137 3.16699H21.587C23.9143 3.16699 25.7115 3.8588 26.9249 5.07366C28.1381 6.28841 28.8267 8.08537 28.8203 10.4123ZM20.3272 17.5621L20.3288 17.56L23.4077 13.5881C23.408 13.5878 23.4082 13.5874 23.4085 13.5871C23.919 12.9324 23.7797 12.0005 23.1436 11.48L23.1423 11.4789C22.4943 10.9525 21.5329 11.0753 21.0303 11.736L18.0464 15.5853L15.7362 13.7674L15.7354 13.7668C15.1383 13.2988 14.3781 13.0872 13.6303 13.1844C12.8689 13.2816 12.2052 13.6718 11.7401 14.2652L11.7375 14.2686L8.5642 18.3886L8.56419 18.3885L8.56178 18.3917C8.06614 19.046 8.17988 19.9853 8.84154 20.4895C9.11904 20.7063 9.44085 20.807 9.76033 20.807C10.2048 20.807 10.6435 20.6051 10.9394 20.2302L10.9395 20.2302L10.9431 20.2254L14.0213 16.229L16.3311 18.0466L16.3319 18.0472C16.9276 18.5141 17.6724 18.7258 18.4318 18.6303C19.199 18.5472 19.8635 18.1537 20.3272 17.5621Z" fill="#009EC5" stroke="#009EC5"/>
</svg>
