<svg width="32" height="32" viewBox="0 0 32 32" fill="none" xmlns="http://www.w3.org/2000/svg">
<path d="M21.587 2.66699H10.4137C5.56033 2.66699 2.66699 5.56033 2.66699 10.4137V21.5737C2.66699 26.4403 5.56033 29.3337 10.4137 29.3337H21.5737C26.427 29.3337 29.3203 26.4403 29.3203 21.587V10.4137C29.3337 5.56033 26.4403 2.66699 21.587 2.66699ZM21.0003 21.0003H11.0003C10.4537 21.0003 10.0003 20.547 10.0003 20.0003C10.0003 19.4537 10.4537 19.0003 11.0003 19.0003H21.0003C21.547 19.0003 22.0003 19.4537 22.0003 20.0003C22.0003 20.547 21.547 21.0003 21.0003 21.0003ZM21.0003 13.0003H11.0003C10.4537 13.0003 10.0003 12.547 10.0003 12.0003C10.0003 11.4537 10.4537 11.0003 11.0003 11.0003H21.0003C21.547 11.0003 22.0003 11.4537 22.0003 12.0003C22.0003 12.547 21.547 13.0003 21.0003 13.0003Z" fill="#009EC5"/>
</svg>
