<svg width="32" height="32" viewBox="0 0 32 32" fill="none" xmlns="http://www.w3.org/2000/svg">
<path d="M15.8762 20C18.0682 20 19.8452 18.2091 19.8452 16C19.8452 13.7909 18.0682 12 15.8762 12C13.6842 12 11.9072 13.7909 11.9072 16C11.9072 18.2091 13.6842 20 15.8762 20Z" fill="#009EC5"/>
<path d="M22.4905 4.66699H9.2605C5.2915 4.66699 2.64551 6.66699 2.64551 11.3337V12.0003V20.0003V20.667C2.64551 25.3337 5.2915 27.3337 9.2605 27.3337H22.4905C26.4595 27.3337 29.1055 25.3337 29.1055 20.667V20.0003V12.0003V11.3337C29.1055 6.66699 26.4595 4.66699 22.4905 4.66699ZM9.2605 25.3337C9.2605 21.5737 8.05657 20.187 4.63 20.027V20.0003V12.0003V11.9737C8.05657 11.8137 9.2605 10.427 9.2605 6.66699H22.4905C22.4905 10.427 23.6944 11.8137 27.121 11.9737V12.0003V20.0003V20.027C23.6944 20.187 22.4905 21.5737 22.4905 25.3337H9.2605Z" fill="#009EC5"/>
</svg>
