<svg width="32" height="32" viewBox="0 0 32 32" fill="none" xmlns="http://www.w3.org/2000/svg">
<path d="M28.7462 14.3198L26.9329 12.2131C26.5862 11.8131 26.3062 11.0664 26.3062 10.5331V8.26642C26.3062 6.85309 25.1462 5.69309 23.7328 5.69309H21.4662C20.9462 5.69309 20.1862 5.41309 19.7862 5.06642L17.6795 3.25309C16.7595 2.46642 15.2529 2.46642 14.3195 3.25309L12.2262 5.07975C11.8262 5.41309 11.0662 5.69309 10.5462 5.69309H8.23952C6.82618 5.69309 5.66618 6.85309 5.66618 8.26642V10.5464C5.66618 11.0664 5.38618 11.8131 5.05285 12.2131L3.25285 14.3331C2.47952 15.2531 2.47952 16.7464 3.25285 17.6664L5.05285 19.7864C5.38618 20.1864 5.66618 20.9331 5.66618 21.4531V23.7331C5.66618 25.1464 6.82618 26.3064 8.23952 26.3064H10.5462C11.0662 26.3064 11.8262 26.5864 12.2262 26.9331L14.3329 28.7464C15.2529 29.5331 16.7595 29.5331 17.6929 28.7464L19.7995 26.9331C20.1995 26.5864 20.9462 26.3064 21.4795 26.3064H23.7462C25.1595 26.3064 26.3195 25.1464 26.3195 23.7331V21.4664C26.3195 20.9464 26.5995 20.1864 26.9462 19.7864L28.7595 17.6798C29.5329 16.7598 29.5329 15.2398 28.7462 14.3198ZM21.5462 13.4798L15.1062 19.9198C14.9195 20.1064 14.6662 20.2131 14.3995 20.2131C14.1329 20.2131 13.8795 20.1064 13.6929 19.9198L10.4662 16.6931C10.0795 16.3064 10.0795 15.6664 10.4662 15.2798C10.8529 14.8931 11.4929 14.8931 11.8795 15.2798L14.3995 17.7998L20.1329 12.0664C20.5195 11.6798 21.1595 11.6798 21.5462 12.0664C21.9328 12.4531 21.9328 13.0931 21.5462 13.4798Z" fill="#009EC5"/>
</svg>
